<svg width="954" height="969" viewBox="0 0 954 969" fill="none" xmlns="http://www.w3.org/2000/svg">
<path d="M215.488 678.285C215.488 679.91 214.169 681.228 212.544 681.228C210.92 681.228 209.601 679.91 209.601 678.285C209.601 676.661 210.92 675.342 212.544 675.342C214.169 675.361 215.488 676.661 215.488 678.285Z" fill="white" fill-opacity="0.8"/>
<path d="M452.78 24.5839C454.405 24.5839 455.723 23.2662 455.723 21.6407C455.723 20.0152 454.405 18.6975 452.78 18.6975C451.154 18.6975 449.836 20.0152 449.836 21.6407C449.836 23.2662 451.154 24.5839 452.78 24.5839Z" fill="white" fill-opacity="0.8"/>
<g opacity="0.7">
<path opacity="0.7" d="M-6.84082 448.752L415.301 10.1166" stroke="#969696" stroke-opacity="0.8" stroke-width="2" stroke-miterlimit="10" stroke-linecap="round" stroke-linejoin="round" stroke-dasharray="0.3 0.3"/>
<path opacity="0.7" d="M-3.4585 484.53L445.211 17.5703" stroke="#969696" stroke-opacity="0.8" stroke-width="2" stroke-miterlimit="10" stroke-linecap="round" stroke-linejoin="round" stroke-dasharray="0.3 0.3"/>
<path opacity="0.7" d="M10.0923 509.432L471.471 28.9224" stroke="#969696" stroke-opacity="0.8" stroke-width="2" stroke-miterlimit="10" stroke-linecap="round" stroke-linejoin="round" stroke-dasharray="0.3 0.3"/>
<path opacity="0.7" d="M29.1655 528.468L500.865 36.9497" stroke="#969696" stroke-opacity="0.8" stroke-width="2" stroke-miterlimit="10" stroke-linecap="round" stroke-linejoin="round" stroke-dasharray="0.3 0.3"/>
<path opacity="0.7" d="M44.0156 551.994L530.507 44.6897" stroke="#969696" stroke-opacity="0.8" stroke-width="2" stroke-miterlimit="10" stroke-linecap="round" stroke-linejoin="round" stroke-dasharray="0.3 0.3"/>
<path opacity="0.7" d="M61.4839 572.731L561.965 50.4999" stroke="#969696" stroke-opacity="0.8" stroke-width="2" stroke-miterlimit="10" stroke-linecap="round" stroke-linejoin="round" stroke-dasharray="0.3 0.3"/>
<path opacity="0.7" d="M78.8179 593.62L586.046 64.1648" stroke="#969696" stroke-opacity="0.8" stroke-width="2" stroke-miterlimit="10" stroke-linecap="round" stroke-linejoin="round" stroke-dasharray="0.3 0.3"/>
<path opacity="0.7" d="M96.1714 614.471L615.516 72.0964" stroke="#969696" stroke-opacity="0.8" stroke-width="2" stroke-miterlimit="10" stroke-linecap="round" stroke-linejoin="round" stroke-dasharray="0.3 0.3"/>
<path opacity="0.7" d="M114.06 634.748L639.482 85.8949" stroke="#969696" stroke-opacity="0.8" stroke-width="2" stroke-miterlimit="10" stroke-linecap="round" stroke-linejoin="round" stroke-dasharray="0.3 0.3"/>
<path opacity="0.7" d="M129.866 657.281L659.435 103.975" stroke="#969696" stroke-opacity="0.8" stroke-width="2" stroke-miterlimit="10" stroke-linecap="round" stroke-linejoin="round" stroke-dasharray="0.3 0.3"/>
<path opacity="0.7" d="M147.793 677.521L681.95 119.322" stroke="#969696" stroke-opacity="0.8" stroke-width="2" stroke-miterlimit="10" stroke-linecap="round" stroke-linejoin="round" stroke-dasharray="0.3 0.3"/>
<path opacity="0.7" d="M166.809 696.594L704.138 135.031" stroke="#969696" stroke-opacity="0.8" stroke-width="2" stroke-miterlimit="10" stroke-linecap="round" stroke-linejoin="round" stroke-dasharray="0.3 0.3"/>
<path opacity="0.7" d="M182.844 718.86L701.176 177.555" stroke="#969696" stroke-opacity="0.8" stroke-width="2" stroke-miterlimit="10" stroke-linecap="round" stroke-linejoin="round" stroke-dasharray="0.3 0.3"/>
</g>
<g opacity="0.7">
<g opacity="0.7">
<path opacity="0.7" d="M241.957 697.569L664.118 258.934" stroke="#969696" stroke-opacity="0.8" stroke-width="2" stroke-miterlimit="10" stroke-linecap="round" stroke-linejoin="round" stroke-dasharray="0.3 0.3"/>
<path opacity="0.7" d="M245.339 733.346L694.027 266.387" stroke="#969696" stroke-opacity="0.8" stroke-width="2" stroke-miterlimit="10" stroke-linecap="round" stroke-linejoin="round" stroke-dasharray="0.3 0.3"/>
<path opacity="0.7" d="M258.909 758.249L720.287 277.74" stroke="#969696" stroke-opacity="0.8" stroke-width="2" stroke-miterlimit="10" stroke-linecap="round" stroke-linejoin="round" stroke-dasharray="0.3 0.3"/>
<path opacity="0.7" d="M277.963 777.285L749.663 285.747" stroke="#969696" stroke-opacity="0.8" stroke-width="2" stroke-miterlimit="10" stroke-linecap="round" stroke-linejoin="round" stroke-dasharray="0.3 0.3"/>
<path opacity="0.7" d="M292.832 800.792L779.305 293.488" stroke="#969696" stroke-opacity="0.8" stroke-width="2" stroke-miterlimit="10" stroke-linecap="round" stroke-linejoin="round" stroke-dasharray="0.3 0.3"/>
<path opacity="0.7" d="M310.301 821.548L810.764 299.298" stroke="#969696" stroke-opacity="0.8" stroke-width="2" stroke-miterlimit="10" stroke-linecap="round" stroke-linejoin="round" stroke-dasharray="0.3 0.3"/>
<path opacity="0.7" d="M327.615 842.437L834.843 312.982" stroke="#969696" stroke-opacity="0.8" stroke-width="2" stroke-miterlimit="10" stroke-linecap="round" stroke-linejoin="round" stroke-dasharray="0.3 0.3"/>
<path opacity="0.7" d="M344.969 863.288L864.314 320.913" stroke="#969696" stroke-opacity="0.8" stroke-width="2" stroke-miterlimit="10" stroke-linecap="round" stroke-linejoin="round" stroke-dasharray="0.3 0.3"/>
<path opacity="0.7" d="M362.877 883.565L888.281 334.712" stroke="#969696" stroke-opacity="0.8" stroke-width="2" stroke-miterlimit="10" stroke-linecap="round" stroke-linejoin="round" stroke-dasharray="0.3 0.3"/>
<path opacity="0.7" d="M378.663 906.079L908.252 352.772" stroke="#969696" stroke-opacity="0.8" stroke-width="2" stroke-miterlimit="10" stroke-linecap="round" stroke-linejoin="round" stroke-dasharray="0.3 0.3"/>
<path opacity="0.7" d="M396.591 926.338L930.767 368.138" stroke="#969696" stroke-opacity="0.8" stroke-width="2" stroke-miterlimit="10" stroke-linecap="round" stroke-linejoin="round" stroke-dasharray="0.3 0.3"/>
<path opacity="0.7" d="M415.626 945.392L952.936 383.848" stroke="#969696" stroke-opacity="0.8" stroke-width="2" stroke-miterlimit="10" stroke-linecap="round" stroke-linejoin="round" stroke-dasharray="0.3 0.3"/>
<path opacity="0.7" d="M431.661 967.677L949.993 426.372" stroke="#969696" stroke-opacity="0.8" stroke-width="2" stroke-miterlimit="10" stroke-linecap="round" stroke-linejoin="round" stroke-dasharray="0.3 0.3"/>
</g>
</g>
<path d="M605.979 193.705C611.267 193.705 615.554 189.418 615.554 184.13C615.554 178.842 611.267 174.555 605.979 174.555C600.691 174.555 596.404 178.842 596.404 184.13C596.404 189.418 600.691 193.705 605.979 193.705Z" fill="url(#paint0_linear_15_89)"/>
<path d="M605.979 200.528C615.035 200.528 622.376 193.186 622.376 184.13C622.376 175.074 615.035 167.732 605.979 167.732C596.922 167.732 589.581 175.074 589.581 184.13C589.581 193.186 596.922 200.528 605.979 200.528Z" stroke="url(#paint1_linear_15_89)" stroke-miterlimit="10"/>
<path d="M397.928 656.001C397.928 662.404 392.729 667.602 386.327 667.602C379.925 667.602 374.726 662.404 374.726 656.001C374.726 649.599 379.925 644.4 386.327 644.4C392.729 644.4 397.928 649.58 397.928 656.001Z" stroke="url(#paint2_linear_15_89)" stroke-miterlimit="10"/>
<path d="M652.229 235.828C664.853 235.828 675.087 225.594 675.087 212.97C675.087 200.346 664.853 190.112 652.229 190.112C639.605 190.112 629.372 200.346 629.372 212.97C629.372 225.594 639.605 235.828 652.229 235.828Z" fill="url(#paint3_linear_15_89)"/>
<path d="M7.09049 460.697C7.09049 466.546 2.35074 471.285 -3.49748 471.285C-9.3457 471.285 -14.0854 466.546 -14.0854 460.697C-14.0854 454.849 -9.3457 450.109 -3.49748 450.109C2.35074 450.109 7.09049 454.849 7.09049 460.697Z" fill="url(#paint4_linear_15_89)"/>
<path d="M537.31 157.775L554.357 137.459" stroke="url(#paint5_linear_15_89)" stroke-miterlimit="10"/>
<path d="M542.547 162.152L569.323 130.254" stroke="url(#paint6_linear_15_89)" stroke-miterlimit="10"/>
<path d="M537.31 179.027L564.811 146.231" stroke="url(#paint7_linear_15_89)" stroke-miterlimit="10"/>
<path d="M17.2388 394.303L34.2674 373.987" stroke="url(#paint8_linear_15_89)" stroke-miterlimit="10"/>
<path d="M22.4561 398.698L49.2317 366.782" stroke="url(#paint9_linear_15_89)" stroke-miterlimit="10"/>
<path d="M17.2388 415.555L44.7216 382.759" stroke="url(#paint10_linear_15_89)" stroke-miterlimit="10"/>
<path d="M585.548 507.999L607.298 482.045" stroke="url(#paint11_linear_15_89)" stroke-miterlimit="10"/>
<path d="M592.218 513.599L626.409 472.833" stroke="url(#paint12_linear_15_89)" stroke-miterlimit="10"/>
<path d="M585.548 535.138L620.676 493.264" stroke="url(#paint13_linear_15_89)" stroke-miterlimit="10"/>
<g opacity="0.5">
<path opacity="0.5" d="M550.268 54.934L524.734 83.3914" stroke="url(#paint14_linear_15_89)" stroke-miterlimit="10"/>
<path opacity="0.5" d="M557.587 61.5084L517.491 106.211" stroke="url(#paint15_linear_15_89)" stroke-miterlimit="10"/>
<path opacity="0.5" d="M580.598 50.6147L539.393 96.5405" stroke="url(#paint16_linear_15_89)" stroke-miterlimit="10"/>
</g>
<path d="M7.09082 495.653L39.4853 457.028" stroke="url(#paint17_linear_15_89)" stroke-miterlimit="10"/>
<path d="M17.0298 503.986L67.9246 443.325" stroke="url(#paint18_linear_15_89)" stroke-miterlimit="10"/>
<path d="M7.09082 536.055L59.3617 473.712" stroke="url(#paint19_linear_15_89)" stroke-miterlimit="10"/>
<path d="M67.9233 411.886C71.4382 411.886 74.2876 409.036 74.2876 405.521C74.2876 402.007 71.4382 399.157 67.9233 399.157C64.4084 399.157 61.5591 402.007 61.5591 405.521C61.5591 409.036 64.4084 411.886 67.9233 411.886Z" fill="white" fill-opacity="0.8"/>
<path d="M72.1093 539.152C72.1093 542.668 69.2617 545.516 65.7451 545.516C62.2286 545.516 59.3809 542.668 59.3809 539.152C59.3809 535.635 62.2286 532.787 65.7451 532.787C69.2617 532.787 72.1093 535.635 72.1093 539.152Z" fill="white" fill-opacity="0.8"/>
<path d="M38.778 230.495C38.778 232.12 37.4593 233.439 35.8348 233.439C34.2103 233.439 32.8916 232.12 32.8916 230.495C32.8916 228.871 34.2103 227.552 35.8348 227.552C37.4593 227.571 38.778 228.871 38.778 230.495Z" fill="white" fill-opacity="0.8"/>
<path d="M603.112 315.562C604.737 315.562 606.055 314.244 606.055 312.619C606.055 310.993 604.737 309.676 603.112 309.676C601.486 309.676 600.168 310.993 600.168 312.619C600.168 314.244 601.486 315.562 603.112 315.562Z" fill="white" fill-opacity="0.8"/>
<path d="M632.295 577.528C632.295 579.152 630.976 580.471 629.352 580.471C627.727 580.471 626.409 579.152 626.409 577.528C626.409 575.903 627.727 574.585 629.352 574.585C630.976 574.604 632.295 575.903 632.295 577.528Z" fill="white" fill-opacity="0.8"/>
<path d="M7.09035 190.494C10.6052 190.494 13.4546 187.645 13.4546 184.13C13.4546 180.615 10.6052 177.766 7.09035 177.766C3.57547 177.766 0.726074 180.615 0.726074 184.13C0.726074 187.645 3.57547 190.494 7.09035 190.494Z" fill="white" fill-opacity="0.8"/>
<path d="M180.377 607.323C180.377 610.84 177.529 613.687 174.013 613.687C170.496 613.687 167.648 610.84 167.648 607.323C167.648 603.807 170.496 600.959 174.013 600.959C177.529 600.959 180.377 603.807 180.377 607.323Z" fill="white" fill-opacity="0.8"/>
<path d="M591.912 603.482C591.912 606.998 589.064 609.846 585.548 609.846C582.031 609.846 579.184 606.998 579.184 603.482C579.184 599.965 582.031 597.118 585.548 597.118C589.064 597.118 591.912 599.965 591.912 603.482Z" fill="white" fill-opacity="0.8"/>
<path d="M700.869 415.555C700.869 419.072 698.021 421.92 694.505 421.92C690.988 421.92 688.141 419.072 688.141 415.555C688.141 412.039 690.988 409.191 694.505 409.191C698.021 409.172 700.869 412.039 700.869 415.555Z" fill="white" fill-opacity="0.8"/>
<path d="M384.359 76.4536C358.654 62.158 326.813 52.755 297.61 61.1259C274.944 67.624 257.839 84.557 244.919 103.631C230.375 125.093 220.131 149.155 209.276 172.605C202.625 186.958 195.381 200.757 185.672 213.333C175.237 226.864 162.815 238.866 148.959 248.842C134.625 259.144 118.838 267.19 102.096 272.751C83.0037 279.096 63.1657 282.613 43.576 287.047C11.3726 294.367 -22.7803 305.738 -43.8606 332.839C-53.1872 344.822 -58.7296 359.347 -58.9781 374.579C-59.2456 390.213 -54.2383 405.617 -46.3451 418.995C-28.4373 449.402 2.69579 466.794 35.1859 477.936C69.9694 489.862 106.683 495.538 140.741 509.681C157.75 516.752 174.033 526.021 187.526 538.692C200.905 551.268 211.244 566.577 220.437 582.363C237.771 612.177 251.723 644.687 276.702 669.207C288.227 680.521 302.006 689.676 317.563 694.339C333.197 699.002 349.9 699.002 365.782 695.62C440.414 679.699 473.63 604.494 503.712 542.744C520.531 508.228 539.184 474.629 567.527 448.16C594.895 422.607 627.557 403.113 653.071 375.516C675.738 351.014 692.786 319.633 688.791 285.289C684.988 252.646 664.672 223.768 639.75 203.337C611.044 179.81 575.535 166.05 541.057 153.398C522.557 146.613 503.827 140.287 485.862 132.146C468.126 124.099 451.078 114.677 434.241 104.93C426.195 100.267 418.206 95.5272 410.179 90.8257C401.655 85.8375 392.806 81.5183 384.187 76.7212C383.518 76.339 382.907 77.371 383.575 77.7533C392.176 82.5312 400.356 88.0927 408.841 93.0809C416.868 97.7824 424.857 102.522 432.903 107.185C449.358 116.722 466.024 125.934 483.32 133.846C517.626 149.556 554.282 159.399 588.492 175.376C620.39 190.265 650.396 210.256 669.546 240.49C678.337 254.366 684.606 270.037 686.326 286.435C688.122 303.54 684.682 320.645 677.382 336.145C662.092 368.616 633.596 391.78 605.865 413.319C591.149 424.748 576.28 436.081 562.844 449.02C549.848 461.519 538.668 475.642 528.959 490.817C509.159 521.759 495.303 555.931 478.313 588.402C461.724 620.09 441.427 651.815 411.574 672.571C383.996 691.74 347.664 702.022 314.964 690.784C282.78 679.719 261.508 650.42 245.301 622.058C228.101 591.938 213.805 558.893 187.565 535.233C161.649 511.878 127.573 500.832 94.509 492.002C59.5726 482.676 23.0882 475.031 -7.72012 455.116C-34.8971 437.553 -57.4873 407.165 -56.4171 373.547C-55.3468 339.49 -27.8258 315.543 1.30066 302.699C36.2562 287.276 75.4737 285.919 111.022 272.235C140.798 260.768 167.191 241.007 186.819 215.894C204.249 193.609 214.073 167.063 226.323 141.835C236.892 120.067 248.875 97.7442 267.012 81.2698C285.742 64.2412 309.785 57.8196 334.706 61.2979C351.888 63.6869 368.229 69.8027 383.423 78.0781C384.455 78.5941 385.372 77.027 384.359 76.4536Z" fill="url(#paint20_linear_15_89)"/>
<g opacity="0.4248">
<path opacity="0.4248" d="M394.297 21.1058C364.903 4.76519 328.476 -5.97565 295.087 3.61849C269.191 11.053 249.64 30.4133 234.885 52.2008C218.239 76.7786 206.523 104.319 194.081 131.152C186.456 147.607 178.161 163.393 167.057 177.804C155.112 193.303 140.874 207.083 124.973 218.493C108.556 230.304 90.4571 239.516 71.2879 245.88C49.4431 253.143 26.7192 257.156 4.30098 262.259C-32.5275 270.63 -71.6112 283.626 -95.7304 314.625C-106.376 328.309 -112.683 344.898 -112.988 362.29C-113.294 380.16 -107.561 397.743 -98.5589 413.032C-78.0901 447.796 -42.4848 467.692 -5.3314 480.42C34.4977 494.066 76.5245 500.564 115.513 516.752C135.026 524.855 153.698 535.482 169.16 550.007C184.487 564.398 196.337 581.943 206.867 600.041C226.686 634.156 242.664 671.367 271.255 699.423C284.423 712.362 300.152 722.816 317.945 728.148C335.815 733.48 354.888 733.48 373.045 729.62C458.417 711.406 496.411 625.346 530.832 554.689C550.097 515.166 571.445 476.674 603.935 446.363C635.278 417.122 672.661 394.799 701.864 363.208C727.779 335.19 747.273 299.317 742.686 260.042C738.329 222.736 715.089 189.71 686.593 166.356C653.759 139.446 613.127 123.698 573.7 109.23C552.505 101.452 531.042 94.2085 510.459 84.882C490.162 75.6701 470.63 64.891 451.365 53.7106C442.153 48.3784 432.998 42.9507 423.825 37.5611C414.078 31.8467 403.987 26.8202 394.125 21.3351C393.456 20.9529 392.844 21.985 393.513 22.3672C403.356 27.8332 412.778 34.121 422.506 39.8163C431.68 45.2058 440.853 50.6145 450.046 55.9658C468.871 66.8787 487.945 77.4284 507.745 86.4874C547.02 104.472 588.989 115.729 628.149 134.019C664.691 151.085 699.054 173.981 721.014 208.612C731.086 224.513 738.272 242.497 740.24 261.303C742.304 280.931 738.348 300.521 729.958 318.314C712.432 355.506 679.809 382.033 648.064 406.706C631.207 419.798 614.198 432.755 598.813 447.567C583.944 461.863 571.158 478.031 560.054 495.385C537.387 530.818 521.524 569.94 502.069 607.113C483.052 643.425 459.812 679.757 425.602 703.532C393.991 725.491 352.327 737.283 314.849 724.383C277.963 711.693 253.557 678.132 234.981 645.604C215.296 611.145 198.936 573.323 168.911 546.242C139.269 519.523 100.281 506.89 62.4583 496.799C22.4572 486.116 -19.3404 477.343 -54.6017 454.562C-85.754 434.437 -111.651 399.577 -110.446 361.029C-109.223 321.983 -77.6697 294.501 -44.2813 279.765C-4.26115 262.106 40.6708 260.558 81.379 244.867C115.417 231.756 145.614 209.128 168.07 180.422C188.023 154.908 199.261 124.539 213.27 95.6802C225.387 70.7393 239.109 45.1867 259.883 26.3042C281.384 6.77193 308.944 -0.586121 337.554 3.42736C357.239 6.17947 375.95 13.1744 393.341 22.673C394.412 23.2272 395.329 21.66 394.297 21.1058Z" fill="url(#paint21_linear_15_89)"/>
</g>
<path d="M532.629 453.282C555.143 428.952 583.619 411.484 608.197 389.467C629.621 370.279 649.307 345.892 654.123 316.747C658.748 288.614 647.816 260.94 630.176 239.325C610.529 215.244 583.18 199.61 555.009 187.455C524.22 174.172 491.71 165.132 461.514 150.455C431.432 135.815 403.796 116.856 374.154 101.471C351.697 89.8128 324.119 82.6841 299.14 89.8892C279.913 95.4316 265.006 109.269 253.577 125.208C240.524 143.402 231.331 164.081 222.023 184.321C216.691 195.941 211.474 207.599 204.46 218.34C196.605 230.342 187.106 241.255 176.346 250.734C165.319 260.462 152.934 268.642 139.671 274.968C124.4 282.25 107.983 286.512 91.5279 290.162C61.5988 296.794 30.4082 302.145 5.27618 320.989C-5.29266 328.921 -14.4281 339.012 -19.7603 351.224C-25.0925 363.418 -26.1628 376.93 -23.468 389.926C-17.6771 417.791 2.77255 440.228 26.9108 454.065C81.456 485.351 153.89 479.981 200.752 525.658C223.495 547.828 235.822 577.68 251.685 604.609C265.77 628.537 283.908 652.331 310.416 663.091C337.459 674.08 368.267 668.347 393.17 654.548C420.098 639.641 439.822 615.025 455.302 588.956C459.201 582.382 462.871 575.693 466.387 568.908C470.019 561.932 472.809 554.632 476.23 547.56C476.555 546.872 475.542 546.261 475.198 546.949C471.815 553.963 467.725 560.671 464.132 567.57C460.52 574.508 456.774 581.388 452.761 588.116C444.867 601.36 436.019 614.069 425.545 625.403C405.344 647.267 378.11 663.703 347.932 666.034C333.426 667.162 318.787 664.697 305.733 658.16C292.986 651.777 282.245 642.126 273.148 631.251C253.978 608.336 242.511 580.471 226.916 555.224C219.157 542.668 210.289 530.665 199.3 520.746C188.253 510.77 175.314 503.125 161.745 497.143C133.861 484.835 103.759 479.293 74.6712 470.635C45.6977 462.016 16.2464 449.689 -3.19035 425.531C-20.7923 403.648 -29.1442 373.146 -14.925 347.326C-1.12629 322.27 26.9108 308.93 53.3616 301.648C84.3036 293.124 116.736 289.894 145.595 274.93C169.944 262.316 190.986 243.376 206.122 220.519C219.042 201.024 227.012 178.511 237.485 157.679C246.735 139.312 257.419 120.697 273.167 107.09C289.488 92.9853 310.11 87.6531 331.381 90.3287C363.126 94.304 389.959 113.244 416.926 128.992C431.126 137.287 445.441 145.428 460.252 152.614C474.529 159.552 489.245 165.19 504.152 170.598C559.615 190.8 627.271 214.135 648.141 275.866C652.747 289.474 654.104 304.037 651.409 318.18C648.657 332.59 642.102 345.969 633.673 357.894C615.67 383.428 589.984 401.508 565.826 420.696C553.652 430.366 541.803 440.457 531.348 451.982C530.565 452.861 531.845 454.142 532.629 453.282Z" fill="url(#paint22_linear_15_89)" fill-opacity="0.8"/>
<defs>
<linearGradient id="paint0_linear_15_89" x1="596.412" y1="184.138" x2="615.543" y2="184.138" gradientUnits="userSpaceOnUse">
<stop offset="0.0277" stop-color="#FFD24D"/>
<stop offset="0.7154" stop-color="#F6BE56"/>
<stop offset="1" stop-color="#F2B45A"/>
</linearGradient>
<linearGradient id="paint1_linear_15_89" x1="588.618" y1="184.138" x2="623.336" y2="184.138" gradientUnits="userSpaceOnUse">
<stop offset="0.0277" stop-color="#FFD24D"/>
<stop offset="0.7154" stop-color="#F6BE56"/>
<stop offset="1" stop-color="#F2B45A"/>
</linearGradient>
<linearGradient id="paint2_linear_15_89" x1="373.765" y1="655.994" x2="398.874" y2="655.994" gradientUnits="userSpaceOnUse">
<stop offset="0.0277" stop-color="#FFD24D"/>
<stop offset="0.7154" stop-color="#F6BE56"/>
<stop offset="1" stop-color="#F2B45A"/>
</linearGradient>
<linearGradient id="paint3_linear_15_89" x1="629.363" y1="212.978" x2="675.09" y2="212.978" gradientUnits="userSpaceOnUse">
<stop offset="0.0277" stop-color="#FFD24D"/>
<stop offset="0.7154" stop-color="#F6BE56"/>
<stop offset="1" stop-color="#F2B45A"/>
</linearGradient>
<linearGradient id="paint4_linear_15_89" x1="-14.0709" y1="460.692" x2="7.08953" y2="460.692" gradientUnits="userSpaceOnUse">
<stop offset="0.0277" stop-color="#FFD24D"/>
<stop offset="0.7154" stop-color="#F6BE56"/>
<stop offset="1" stop-color="#F2B45A"/>
</linearGradient>
<linearGradient id="paint5_linear_15_89" x1="535.827" y1="148.491" x2="555.847" y2="146.737" gradientUnits="userSpaceOnUse">
<stop offset="0.0277" stop-color="#FFD24D"/>
<stop offset="0.7154" stop-color="#F6BE56"/>
<stop offset="1" stop-color="#F2B45A"/>
</linearGradient>
<linearGradient id="paint6_linear_15_89" x1="540.592" y1="147.547" x2="571.277" y2="144.858" gradientUnits="userSpaceOnUse">
<stop offset="0.0277" stop-color="#FFD24D"/>
<stop offset="0.7154" stop-color="#F6BE56"/>
<stop offset="1" stop-color="#F2B45A"/>
</linearGradient>
<linearGradient id="paint7_linear_15_89" x1="535.324" y1="164.007" x2="566.813" y2="161.248" gradientUnits="userSpaceOnUse">
<stop offset="0.0277" stop-color="#FFD24D"/>
<stop offset="0.7154" stop-color="#F6BE56"/>
<stop offset="1" stop-color="#F2B45A"/>
</linearGradient>
<linearGradient id="paint8_linear_15_89" x1="16.498" y1="384.145" x2="34.9998" y2="384.145" gradientUnits="userSpaceOnUse">
<stop offset="0.0277" stop-color="#FFD24D"/>
<stop offset="0.1674" stop-color="#EBC34D"/>
<stop offset="0.4544" stop-color="#B69D4D"/>
<stop offset="0.8604" stop-color="#625F4E"/>
<stop offset="1" stop-color="#44494E"/>
</linearGradient>
<linearGradient id="paint9_linear_15_89" x1="21.7294" y1="382.734" x2="49.9606" y2="382.734" gradientUnits="userSpaceOnUse">
<stop offset="0.0277" stop-color="#FFD24D"/>
<stop offset="0.1674" stop-color="#EBC34D"/>
<stop offset="0.4544" stop-color="#B69D4D"/>
<stop offset="0.8604" stop-color="#625F4E"/>
<stop offset="1" stop-color="#44494E"/>
</linearGradient>
<linearGradient id="paint10_linear_15_89" x1="16.498" y1="399.159" x2="45.4629" y2="399.159" gradientUnits="userSpaceOnUse">
<stop offset="0.0277" stop-color="#FFD24D"/>
<stop offset="0.1674" stop-color="#EBC34D"/>
<stop offset="0.4544" stop-color="#B69D4D"/>
<stop offset="0.8604" stop-color="#625F4E"/>
<stop offset="1" stop-color="#44494E"/>
</linearGradient>
<linearGradient id="paint11_linear_15_89" x1="583.822" y1="496.127" x2="609.022" y2="493.919" gradientUnits="userSpaceOnUse">
<stop offset="0.0277" stop-color="#FFD24D"/>
<stop offset="0.7154" stop-color="#F6BE56"/>
<stop offset="1" stop-color="#F2B45A"/>
</linearGradient>
<linearGradient id="paint12_linear_15_89" x1="589.907" y1="494.921" x2="628.73" y2="491.519" gradientUnits="userSpaceOnUse">
<stop offset="0.0277" stop-color="#FFD24D"/>
<stop offset="0.7154" stop-color="#F6BE56"/>
<stop offset="1" stop-color="#F2B45A"/>
</linearGradient>
<linearGradient id="paint13_linear_15_89" x1="583.18" y1="515.947" x2="623.03" y2="512.455" gradientUnits="userSpaceOnUse">
<stop offset="0.0277" stop-color="#FFD24D"/>
<stop offset="0.7154" stop-color="#F6BE56"/>
<stop offset="1" stop-color="#F2B45A"/>
</linearGradient>
<linearGradient id="paint14_linear_15_89" x1="536.732" y1="54.9978" x2="538.268" y2="83.3384" gradientUnits="userSpaceOnUse">
<stop offset="0.0277" stop-color="#FFD24D"/>
<stop offset="0.7154" stop-color="#F6BE56"/>
<stop offset="1" stop-color="#F2B45A"/>
</linearGradient>
<linearGradient id="paint15_linear_15_89" x1="536.353" y1="61.9914" x2="538.724" y2="105.746" gradientUnits="userSpaceOnUse">
<stop offset="0.0277" stop-color="#FFD24D"/>
<stop offset="0.7154" stop-color="#F6BE56"/>
<stop offset="1" stop-color="#F2B45A"/>
</linearGradient>
<linearGradient id="paint16_linear_15_89" x1="558.78" y1="51.125" x2="561.213" y2="96.0412" gradientUnits="userSpaceOnUse">
<stop offset="0.0277" stop-color="#FFD24D"/>
<stop offset="0.7154" stop-color="#F6BE56"/>
<stop offset="1" stop-color="#F2B45A"/>
</linearGradient>
<linearGradient id="paint17_linear_15_89" x1="4.86088" y1="477.955" x2="41.7076" y2="474.726" gradientUnits="userSpaceOnUse">
<stop offset="0.0277" stop-color="#FFD24D"/>
<stop offset="0.1674" stop-color="#EBC34D"/>
<stop offset="0.4544" stop-color="#B69D4D"/>
<stop offset="0.8604" stop-color="#625F4E"/>
<stop offset="1" stop-color="#44494E"/>
</linearGradient>
<linearGradient id="paint18_linear_15_89" x1="13.919" y1="476.16" x2="71.0391" y2="471.155" gradientUnits="userSpaceOnUse">
<stop offset="0.0277" stop-color="#FFD24D"/>
<stop offset="0.1674" stop-color="#EBC34D"/>
<stop offset="0.4544" stop-color="#B69D4D"/>
<stop offset="0.8604" stop-color="#625F4E"/>
<stop offset="1" stop-color="#44494E"/>
</linearGradient>
<linearGradient id="paint19_linear_15_89" x1="3.90567" y1="507.452" x2="62.5542" y2="502.313" gradientUnits="userSpaceOnUse">
<stop offset="0.0277" stop-color="#FFD24D"/>
<stop offset="0.1674" stop-color="#EBC34D"/>
<stop offset="0.4544" stop-color="#B69D4D"/>
<stop offset="0.8604" stop-color="#625F4E"/>
<stop offset="1" stop-color="#44494E"/>
</linearGradient>
<linearGradient id="paint20_linear_15_89" x1="-16.5727" y1="505.712" x2="679.644" y2="252.31" gradientUnits="userSpaceOnUse">
<stop offset="0.0277" stop-color="#FFD24D"/>
<stop offset="0.0356" stop-color="#F7CC4C"/>
<stop offset="0.0797" stop-color="#CEAE4A"/>
<stop offset="0.1292" stop-color="#A89348"/>
<stop offset="0.1831" stop-color="#887B45"/>
<stop offset="0.2427" stop-color="#6C6744"/>
<stop offset="0.3099" stop-color="#565742"/>
<stop offset="0.3884" stop-color="#454B41"/>
<stop offset="0.4856" stop-color="#3A4241"/>
<stop offset="0.6218" stop-color="#333D40"/>
<stop offset="1" stop-color="#313C40"/>
</linearGradient>
<linearGradient id="paint21_linear_15_89" x1="-112.991" y1="366.184" x2="743.37" y2="366.184" gradientUnits="userSpaceOnUse">
<stop stop-color="#5C5A44"/>
<stop offset="0.6103" stop-color="#3F4541"/>
<stop offset="1" stop-color="#313C40"/>
</linearGradient>
<linearGradient id="paint22_linear_15_89" x1="152.112" y1="172.772" x2="516.569" y2="537.229" gradientUnits="userSpaceOnUse">
<stop stop-color="#313C40"/>
<stop offset="0.251" stop-color="#333E40"/>
<stop offset="0.397" stop-color="#3C4441"/>
<stop offset="0.5161" stop-color="#4A4E42"/>
<stop offset="0.6208" stop-color="#5E5D43"/>
<stop offset="0.716" stop-color="#786F44"/>
<stop offset="0.8042" stop-color="#988746"/>
<stop offset="0.8873" stop-color="#BDA249"/>
<stop offset="0.964" stop-color="#E8C14C"/>
<stop offset="1" stop-color="#FFD24D"/>
</linearGradient>
</defs>
</svg>
