<svg width="164" height="31" viewBox="0 0 164 31" fill="none" xmlns="http://www.w3.org/2000/svg">
<ellipse rx="6.92208" ry="7.15385" transform="matrix(-1 0 0 1 119.184 7.15385)" fill="#FF605C"/>
<ellipse rx="6.92208" ry="7.15385" transform="matrix(-1 0 0 1 137.643 23.8461)" fill="#FFBD44"/>
<ellipse rx="6.92208" ry="7.15385" transform="matrix(-1 0 0 1 156.102 7.15385)" fill="#00CA4E"/>
<path d="M8.7 14.915C9.54 14.915 10.28 14.815 10.92 14.615C11.57 14.405 12.11 14.115 12.54 13.745C12.98 13.365 13.31 12.915 13.53 12.395C13.75 11.875 13.86 11.3 13.86 10.67C13.86 9.39 13.44 8.425 12.6 7.775C11.76 7.125 10.5 6.8 8.82 6.8H5.64V14.915H8.7ZM18.63 26H16.05C15.52 26 15.13 25.795 14.88 25.385L9.3 17.705C9.13 17.465 8.945 17.295 8.745 17.195C8.555 17.085 8.255 17.03 7.845 17.03H5.64V26H2.745V4.505H8.82C10.18 4.505 11.355 4.645 12.345 4.925C13.335 5.195 14.15 5.59 14.79 6.11C15.44 6.63 15.92 7.26 16.23 8C16.54 8.73 16.695 9.55 16.695 10.46C16.695 11.22 16.575 11.93 16.335 12.59C16.095 13.25 15.745 13.845 15.285 14.375C14.835 14.895 14.28 15.34 13.62 15.71C12.97 16.08 12.23 16.36 11.4 16.55C11.77 16.76 12.09 17.065 12.36 17.465L18.63 26ZM30.1268 16.745C30.1268 16.125 30.0368 15.56 29.8568 15.05C29.6868 14.53 29.4318 14.085 29.0918 13.715C28.7618 13.335 28.3568 13.045 27.8768 12.845C27.3968 12.635 26.8518 12.53 26.2418 12.53C24.9618 12.53 23.9468 12.905 23.1968 13.655C22.4568 14.395 21.9968 15.425 21.8168 16.745H30.1268ZM32.2868 23.87C31.9568 24.27 31.5618 24.62 31.1018 24.92C30.6418 25.21 30.1468 25.45 29.6168 25.64C29.0968 25.83 28.5568 25.97 27.9968 26.06C27.4368 26.16 26.8818 26.21 26.3318 26.21C25.2818 26.21 24.3118 26.035 23.4218 25.685C22.5418 25.325 21.7768 24.805 21.1268 24.125C20.4868 23.435 19.9868 22.585 19.6268 21.575C19.2668 20.565 19.0868 19.405 19.0868 18.095C19.0868 17.035 19.2468 16.045 19.5668 15.125C19.8968 14.205 20.3668 13.41 20.9768 12.74C21.5868 12.06 22.3318 11.53 23.2118 11.15C24.0918 10.76 25.0818 10.565 26.1818 10.565C27.0918 10.565 27.9318 10.72 28.7018 11.03C29.4818 11.33 30.1518 11.77 30.7118 12.35C31.2818 12.92 31.7268 13.63 32.0468 14.48C32.3668 15.32 32.5268 16.28 32.5268 17.36C32.5268 17.78 32.4818 18.06 32.3918 18.2C32.3018 18.34 32.1318 18.41 31.8818 18.41H21.7268C21.7568 19.37 21.8868 20.205 22.1168 20.915C22.3568 21.625 22.6868 22.22 23.1068 22.7C23.5268 23.17 24.0268 23.525 24.6068 23.765C25.1868 23.995 25.8368 24.11 26.5568 24.11C27.2268 24.11 27.8018 24.035 28.2818 23.885C28.7718 23.725 29.1918 23.555 29.5418 23.375C29.8918 23.195 30.1818 23.03 30.4118 22.88C30.6518 22.72 30.8568 22.64 31.0268 22.64C31.2468 22.64 31.4168 22.725 31.5368 22.895L32.2868 23.87ZM44.0414 19.16C42.8114 19.2 41.7614 19.3 40.8914 19.46C40.0314 19.61 39.3264 19.81 38.7764 20.06C38.2364 20.31 37.8414 20.605 37.5914 20.945C37.3514 21.285 37.2314 21.665 37.2314 22.085C37.2314 22.485 37.2964 22.83 37.4264 23.12C37.5564 23.41 37.7314 23.65 37.9514 23.84C38.1814 24.02 38.4464 24.155 38.7464 24.245C39.0564 24.325 39.3864 24.365 39.7364 24.365C40.2064 24.365 40.6364 24.32 41.0264 24.23C41.4164 24.13 41.7814 23.99 42.1214 23.81C42.4714 23.63 42.8014 23.415 43.1114 23.165C43.4314 22.915 43.7414 22.63 44.0414 22.31V19.16ZM35.4164 12.95C36.2564 12.14 37.1614 11.535 38.1314 11.135C39.1014 10.735 40.1764 10.535 41.3564 10.535C42.2064 10.535 42.9614 10.675 43.6214 10.955C44.2814 11.235 44.8364 11.625 45.2864 12.125C45.7364 12.625 46.0764 13.23 46.3064 13.94C46.5364 14.65 46.6514 15.43 46.6514 16.28V26H45.4664C45.2064 26 45.0064 25.96 44.8664 25.88C44.7264 25.79 44.6164 25.62 44.5364 25.37L44.2364 23.93C43.8364 24.3 43.4464 24.63 43.0664 24.92C42.6864 25.2 42.2864 25.44 41.8664 25.64C41.4464 25.83 40.9964 25.975 40.5164 26.075C40.0464 26.185 39.5214 26.24 38.9414 26.24C38.3514 26.24 37.7964 26.16 37.2764 26C36.7564 25.83 36.3014 25.58 35.9114 25.25C35.5314 24.92 35.2264 24.505 34.9964 24.005C34.7764 23.495 34.6664 22.895 34.6664 22.205C34.6664 21.605 34.8314 21.03 35.1614 20.48C35.4914 19.92 36.0264 19.425 36.7664 18.995C37.5064 18.565 38.4714 18.215 39.6614 17.945C40.8514 17.665 42.3114 17.505 44.0414 17.465V16.28C44.0414 15.1 43.7864 14.21 43.2764 13.61C42.7664 13 42.0214 12.695 41.0414 12.695C40.3814 12.695 39.8264 12.78 39.3764 12.95C38.9364 13.11 38.5514 13.295 38.2214 13.505C37.9014 13.705 37.6214 13.89 37.3814 14.06C37.1514 14.22 36.9214 14.3 36.6914 14.3C36.5114 14.3 36.3564 14.255 36.2264 14.165C36.0964 14.065 35.9864 13.945 35.8964 13.805L35.4164 12.95ZM61.2935 13.505C61.2135 13.615 61.1335 13.7 61.0535 13.76C60.9735 13.82 60.8635 13.85 60.7235 13.85C60.5735 13.85 60.4085 13.79 60.2285 13.67C60.0485 13.54 59.8235 13.4 59.5535 13.25C59.2935 13.1 58.9685 12.965 58.5785 12.845C58.1985 12.715 57.7285 12.65 57.1685 12.65C56.4185 12.65 55.7585 12.785 55.1885 13.055C54.6185 13.315 54.1385 13.695 53.7485 14.195C53.3685 14.695 53.0785 15.3 52.8785 16.01C52.6885 16.72 52.5935 17.515 52.5935 18.395C52.5935 19.315 52.6985 20.135 52.9085 20.855C53.1185 21.565 53.4135 22.165 53.7935 22.655C54.1835 23.135 54.6485 23.505 55.1885 23.765C55.7385 24.015 56.3535 24.14 57.0335 24.14C57.6835 24.14 58.2185 24.065 58.6385 23.915C59.0585 23.755 59.4035 23.58 59.6735 23.39C59.9535 23.2 60.1835 23.03 60.3635 22.88C60.5535 22.72 60.7385 22.64 60.9185 22.64C61.1385 22.64 61.3085 22.725 61.4285 22.895L62.1785 23.87C61.8485 24.28 61.4735 24.63 61.0535 24.92C60.6335 25.21 60.1785 25.455 59.6885 25.655C59.2085 25.845 58.7035 25.985 58.1735 26.075C57.6435 26.165 57.1035 26.21 56.5535 26.21C55.6035 26.21 54.7185 26.035 53.8985 25.685C53.0885 25.335 52.3835 24.83 51.7835 24.17C51.1835 23.5 50.7135 22.68 50.3735 21.71C50.0335 20.74 49.8635 19.635 49.8635 18.395C49.8635 17.265 50.0185 16.22 50.3285 15.26C50.6485 14.3 51.1085 13.475 51.7085 12.785C52.3185 12.085 53.0635 11.54 53.9435 11.15C54.8335 10.76 55.8535 10.565 57.0035 10.565C58.0735 10.565 59.0135 10.74 59.8235 11.09C60.6435 11.43 61.3685 11.915 61.9985 12.545L61.2935 13.505ZM79.1447 26H76.4747V13.04H68.6447V22.16C68.6447 22.8 68.7997 23.275 69.1097 23.585C69.4197 23.895 69.8197 24.05 70.3097 24.05C70.5897 24.05 70.8297 24.015 71.0297 23.945C71.2397 23.865 71.4197 23.78 71.5697 23.69C71.7197 23.6 71.8447 23.52 71.9447 23.45C72.0547 23.37 72.1497 23.33 72.2297 23.33C72.3697 23.33 72.4947 23.415 72.6047 23.585L73.3847 24.86C72.9247 25.29 72.3697 25.63 71.7197 25.88C71.0697 26.12 70.3997 26.24 69.7097 26.24C68.5097 26.24 67.5847 25.905 66.9347 25.235C66.2947 24.565 65.9747 23.6 65.9747 22.34V13.04H64.1447C63.9847 13.04 63.8497 12.995 63.7397 12.905C63.6297 12.805 63.5747 12.655 63.5747 12.455V11.39L66.0647 11.06L66.6797 6.38C66.7097 6.23 66.7747 6.11 66.8747 6.02C66.9847 5.92 67.1247 5.87 67.2947 5.87H68.6447V11.105H79.1447V26ZM79.8047 5.93C79.8047 6.19 79.7497 6.435 79.6397 6.665C79.5397 6.885 79.3997 7.08 79.2197 7.25C79.0497 7.42 78.8497 7.555 78.6197 7.655C78.3897 7.755 78.1447 7.805 77.8847 7.805C77.6247 7.805 77.3797 7.755 77.1497 7.655C76.9297 7.555 76.7347 7.42 76.5647 7.25C76.3947 7.08 76.2597 6.885 76.1597 6.665C76.0597 6.435 76.0097 6.19 76.0097 5.93C76.0097 5.67 76.0597 5.425 76.1597 5.195C76.2597 4.955 76.3947 4.75 76.5647 4.58C76.7347 4.4 76.9297 4.26 77.1497 4.16C77.3797 4.06 77.6247 4.01 77.8847 4.01C78.1447 4.01 78.3897 4.06 78.6197 4.16C78.8497 4.26 79.0497 4.4 79.2197 4.58C79.3997 4.75 79.5397 4.955 79.6397 5.195C79.7497 5.425 79.8047 5.67 79.8047 5.93ZM96.551 10.805L90.356 26H87.956L81.761 10.805H83.936C84.156 10.805 84.336 10.86 84.476 10.97C84.616 11.08 84.711 11.21 84.761 11.36L88.616 21.14C88.736 21.51 88.841 21.87 88.931 22.22C89.021 22.57 89.106 22.92 89.186 23.27C89.266 22.92 89.351 22.57 89.441 22.22C89.531 21.87 89.641 21.51 89.771 21.14L93.671 11.36C93.731 11.2 93.831 11.07 93.971 10.97C94.111 10.86 94.276 10.805 94.466 10.805H96.551ZM108.76 16.745C108.76 16.125 108.67 15.56 108.49 15.05C108.32 14.53 108.065 14.085 107.725 13.715C107.395 13.335 106.99 13.045 106.51 12.845C106.03 12.635 105.485 12.53 104.875 12.53C103.595 12.53 102.58 12.905 101.83 13.655C101.09 14.395 100.63 15.425 100.45 16.745H108.76ZM110.92 23.87C110.59 24.27 110.195 24.62 109.735 24.92C109.275 25.21 108.78 25.45 108.25 25.64C107.73 25.83 107.19 25.97 106.63 26.06C106.07 26.16 105.515 26.21 104.965 26.21C103.915 26.21 102.945 26.035 102.055 25.685C101.175 25.325 100.41 24.805 99.7596 24.125C99.1196 23.435 98.6196 22.585 98.2596 21.575C97.8996 20.565 97.7196 19.405 97.7196 18.095C97.7196 17.035 97.8796 16.045 98.1996 15.125C98.5296 14.205 98.9996 13.41 99.6096 12.74C100.22 12.06 100.965 11.53 101.845 11.15C102.725 10.76 103.715 10.565 104.815 10.565C105.725 10.565 106.565 10.72 107.335 11.03C108.115 11.33 108.785 11.77 109.345 12.35C109.915 12.92 110.36 13.63 110.68 14.48C111 15.32 111.16 16.28 111.16 17.36C111.16 17.78 111.115 18.06 111.025 18.2C110.935 18.34 110.765 18.41 110.515 18.41H100.36C100.39 19.37 100.52 20.205 100.75 20.915C100.99 21.625 101.32 22.22 101.74 22.7C102.16 23.17 102.66 23.525 103.24 23.765C103.82 23.995 104.47 24.11 105.19 24.11C105.86 24.11 106.435 24.035 106.915 23.885C107.405 23.725 107.825 23.555 108.175 23.375C108.525 23.195 108.815 23.03 109.045 22.88C109.285 22.72 109.49 22.64 109.66 22.64C109.88 22.64 110.05 22.725 110.17 22.895L110.92 23.87Z" fill="white"/>
</svg>
