<?xml version="1.0" encoding="utf-8"?>
<!-- Generator: Adobe Illustrator 24.3.0, SVG Export Plug-In . SVG Version: 6.00 Build 0)  -->
<svg version="1.1" id="Layer_1" xmlns="http://www.w3.org/2000/svg" xmlns:xlink="http://www.w3.org/1999/xlink" x="0px" y="0px"
	 viewBox="0 0 179 508" style="enable-background:new 0 0 179 508;" xml:space="preserve">
<style type="text/css">
	.st0{fill:#FFFFFF;}
	.st1{fill:#017EFA;}
	.st2{opacity:0.5;fill:#017EFA;enable-background:new    ;}
	.st3{opacity:0.4;fill:#017EFA;enable-background:new    ;}
	.st4{opacity:0.3;fill:#017EFA;enable-background:new    ;}
	.st5{opacity:0.15;fill:#017EFA;enable-background:new    ;}
	.st6{opacity:8.000000e-02;fill:#017EFA;enable-background:new    ;}
	.st7{opacity:0.2;fill:#017EFA;enable-background:new    ;}
	.st8{opacity:0.12;fill:#017EFA;enable-background:new    ;}
	.st9{opacity:0.5;fill:#FFFFFF;enable-background:new    ;}
	.st10{opacity:0.7;fill:#FFFFFF;enable-background:new    ;}
	.st11{fill:#51CBFF;}
	.st12{opacity:0.7;fill:#017EFA;enable-background:new    ;}
	.st13{fill:#6342FF;}
	.st14{opacity:0.4;fill:#FFFFFF;enable-background:new    ;}
	.st15{opacity:0.6;fill:#FFFFFF;enable-background:new    ;}
	.st16{fill-rule:evenodd;clip-rule:evenodd;fill:#FFFFFF;filter:url(#Adobe_OpacityMaskFilter);}
	.st17{mask:url(#path-33-inside-1_1_);fill:#017EFA;}
	.st18{opacity:0.8;}
	.st19{fill:#FD1F9B;}
	.st20{fill:#FFFFFF;stroke:#017EFA;stroke-width:3;}
	.st21{fill-rule:evenodd;clip-rule:evenodd;fill:#FFFFFF;filter:url(#Adobe_OpacityMaskFilter_1_);}
	.st22{mask:url(#path-66-inside-2_1_);fill:#017EFA;}
</style>
<circle class="st0" cx="124.6" cy="218.9" r="11.2"/>
<circle class="st1" cx="124.6" cy="256.4" r="11.2"/>
<circle class="st1" cx="124.6" cy="218.9" r="11.2"/>
<circle class="st1" cx="87.1" cy="256.4" r="11.2"/>
<circle class="st2" cx="87.7" cy="321.7" r="11.2"/>
<circle class="st3" cx="87.7" cy="308.2" r="11.2"/>
<circle class="st4" cx="87.7" cy="294.7" r="11.2"/>
<circle class="st5" cx="87.7" cy="281.2" r="11.2"/>
<circle class="st6" cx="87.7" cy="267.7" r="11.2"/>
<circle class="st1" cx="87.7" cy="335.3" r="11.2"/>
<circle class="st1" cx="49.7" cy="293.8" r="11.2"/>
<circle class="st1" cx="49.7" cy="218.9" r="11.2"/>
<circle class="st1" cx="87.1" cy="218.9" r="11.2"/>
<circle class="st3" cx="87.1" cy="205.2" r="11.2"/>
<circle class="st4" cx="87.1" cy="191.7" r="11.2"/>
<circle class="st7" cx="87.1" cy="178.2" r="11.2"/>
<circle class="st8" cx="87.1" cy="164.7" r="11.2"/>
<circle class="st6" cx="87.1" cy="152.2" r="11.2"/>
<path class="st1" d="M91.4,18.8h34.7l10.8,11.3v48H91.4V18.8z"/>
<path class="st9" d="M126.1,18.8l10.7,11.2h-10.7V18.8z"/>
<rect x="98.9" y="52.8" class="st9" width="19.7" height="5.4"/>
<rect x="98.9" y="41.9" class="st10" width="10.9" height="5.4"/>
<path class="st11" d="M0,44.4h29l9,9.4V94H0V44.4z"/>
<path class="st9" d="M29.1,44.4l9,9.4h-9V44.4z"/>
<rect x="6.3" y="72.9" class="st9" width="16.5" height="4.6"/>
<rect x="6.3" y="63.8" class="st12" width="9.1" height="4.6"/>
<rect x="6.3" y="80.3" class="st9" width="16.5" height="4.6"/>
<path class="st13" d="M133.3,97.7H153l6.1,6.4v27.3h-25.9V97.7z"/>
<path class="st9" d="M153.1,97.7l6.1,6.4h-6.1V97.7z"/>
<rect x="137.6" y="117.1" class="st14" width="11.2" height="3.1"/>
<rect x="137.6" y="110.9" class="st15" width="6.2" height="3.1"/>
<rect x="137.6" y="122.1" class="st14" width="11.2" height="3.1"/>
<defs>
	<filter id="Adobe_OpacityMaskFilter" filterUnits="userSpaceOnUse" x="52.4" y="-2.8" width="29.1" height="35.6">
		<feColorMatrix  type="matrix" values="1 0 0 0 0  0 1 0 0 0  0 0 1 0 0  0 0 0 1 0"/>
	</filter>
</defs>
<mask maskUnits="userSpaceOnUse" x="52.4" y="-2.8" width="29.1" height="35.6" id="path-33-inside-1_1_">
	<path class="st16" d="M70.6,0H55.2v30h23.4V8.1L70.6,0z"/>
</mask>
<path class="st17" d="M55.2,0v-2.8h-2.8V0H55.2z M70.6,0l2-2l-0.8-0.8h-1.2V0z M55.2,30h-2.8v2.8h2.8V30z M78.7,30v2.8h2.8V30H78.7z
	 M78.7,8.1h2.8V6.9l-0.8-0.8L78.7,8.1z M55.2,2.8h15.4v-5.6H55.2V2.8z M58,30V0h-5.6v30H58z M78.7,27.2H55.2v5.6h23.4V27.2z
	 M75.9,8.1V30h5.6V8.1H75.9z M80.7,6.1L72.6-2l-4,4l8.1,8.1L80.7,6.1z"/>
<rect x="61.8" y="15" class="st11" width="10.3" height="2.8"/>
<rect x="61.8" y="9.4" class="st11" width="5.6" height="2.8"/>
<rect x="61.8" y="19.7" class="st11" width="10.3" height="2.8"/>
<g class="st18">
	<path class="st19" d="M25.3,108.5h24.5l7.6,8v33.9H25.3V108.5z"/>
	<path class="st9" d="M49.9,108.5l7.6,7.9h-7.6V108.5z"/>
	<rect x="30.6" y="132.5" class="st14" width="14" height="3.8"/>
	<rect x="30.6" y="124.8" class="st15" width="7.7" height="3.8"/>
	<rect x="30.6" y="138.8" class="st14" width="14" height="3.8"/>
</g>
<circle class="st1" cx="124.6" cy="293.8" r="11.2"/>
<circle class="st1" cx="49.7" cy="256.4" r="11.2"/>
<rect x="7.7" y="365.1" class="st1" width="48.5" height="60.7"/>
<rect x="26.5" y="376.5" class="st20" width="45.5" height="62.5"/>
<rect x="33.9" y="383.9" class="st11" width="17" height="16.4"/>
<rect x="33.7" y="411.6" class="st11" width="17.2" height="3.1"/>
<rect x="33.9" y="404.1" class="st19" width="10" height="4.6"/>
<rect x="33.7" y="416.6" class="st11" width="17.2" height="3.1"/>
<rect x="63" y="400" class="st19" width="36" height="20"/>
<rect x="66" y="403" class="st0" width="9" height="3"/>
<rect x="66" y="408" class="st0" width="6" height="3"/>
<path class="st11" d="M87.2,409.6h87.6c2.3,0,4.3,1.9,4.3,4.3v55.3c0,2.3-1.9,4.3-4.3,4.3H87.2c-2.3,0-4.3-1.9-4.3-4.3v-55.3
	C82.9,411.5,84.8,409.6,87.2,409.6z"/>
<path class="st0" d="M88.9,414.7H173c0.5,0,0.9,0.4,0.9,0.9v51.9c0,0.5-0.4,0.9-0.9,0.9H88.9c-0.5,0-0.9-0.4-0.9-0.9v-51.9
	C88,415.1,88.4,414.7,88.9,414.7z"/>
<rect x="121.9" y="472.2" class="st11" width="18.9" height="9.1"/>
<rect x="116.1" y="481" class="st11" width="30.6" height="4"/>
<path class="st1" d="M138.9,359.5v35.9c0,1.1-0.9,2.1-2.1,2.1h-17.3c-1.1,0-2.1-0.9-2.1-2.1v-35.9c0-1.1,0.9-2.1,2.1-2.1h17.3
	C138,357.4,138.9,358.4,138.9,359.5z"/>
<path class="st0" d="M136.1,362.3v29c0,0.4-0.3,0.7-0.7,0.7h-14.5c-0.4,0-0.7-0.3-0.7-0.7v-29c0-0.4,0.3-0.7,0.7-0.7h14.5
	C135.8,361.6,136.1,361.9,136.1,362.3z"/>
<path class="st9" d="M132.7,359.8L132.7,359.8c0,0.2-0.2,0.3-0.3,0.3H124c-0.2,0-0.3-0.2-0.3-0.3l0,0c0-0.2,0.2-0.3,0.3-0.3h8.3
	C132.5,359.5,132.7,359.6,132.7,359.8z"/>
<circle class="st9" cx="128.1" cy="394.7" r="1.4"/>
<path class="st13" d="M99,455v49.5c0,1.5-1.2,2.8-2.8,2.8H57.8c-1.5,0-2.8-1.2-2.8-2.8V455c0-1.5,1.2-2.8,2.8-2.8h38.5
	C97.8,452.3,99,453.5,99,455z"/>
<path class="st0" d="M95,457.2v44.2c0,0.5-0.4,0.9-0.9,0.9H59.9c-0.5,0-0.9-0.4-0.9-0.9v-44.2c0-0.5,0.4-0.9,0.9-0.9h34.2
	C94.6,456.3,95,456.7,95,457.2z"/>
<circle class="st9" cx="76.8" cy="504.7" r="1.4"/>
<path class="st0" d="M68,61h30l16,16v43H68V61z"/>
<defs>
	<filter id="Adobe_OpacityMaskFilter_1_" filterUnits="userSpaceOnUse" x="65" y="58" width="51.9" height="64.8">
		<feColorMatrix  type="matrix" values="1 0 0 0 0  0 1 0 0 0  0 0 1 0 0  0 0 0 1 0"/>
	</filter>
</defs>
<mask maskUnits="userSpaceOnUse" x="65" y="58" width="51.9" height="64.8" id="path-66-inside-2_1_">
	<path class="st21" d="M98.2,61H68v58.9h46v-43L98.2,61z"/>
</mask>
<path class="st22" d="M68,61v-3h-3v3H68z M98.2,61l2.1-2.1L99.4,58h-1.2V61z M68,119.9h-3v3h3V119.9z M114,119.9v3h3v-3H114z
	 M114,76.8h3v-1.2l-0.9-0.9L114,76.8z M68,64h30.2V58H68V64z M71,119.9V61H65v58.9H71z M114,116.9H68v5.9h46V116.9z M111,76.8v43
	h5.9v-43H111z M116.1,74.7l-15.8-15.8l-4.2,4.2l15.8,15.8L116.1,74.7z"/>
<rect x="80.9" y="90.4" class="st11" width="20.2" height="5.5"/>
<rect x="80.9" y="79.4" class="st19" width="11" height="5.5"/>
<rect x="80.9" y="99.6" class="st11" width="20.2" height="5.5"/>
</svg>
