<svg width="565" height="384" viewBox="0 0 565 384" fill="none" xmlns="http://www.w3.org/2000/svg">
<path opacity="0.18" d="M444.312 131.408C444.312 135.709 444.054 139.951 443.552 144.117C479.367 153.718 505.738 186.405 505.738 225.25C505.738 268.089 473.666 303.438 432.223 308.594V309.244H193.829V308.845C136.598 304.037 91.6484 256.062 91.6484 197.588C91.6484 135.924 141.637 85.9354 203.301 85.9354C216.706 85.9354 229.559 88.2977 241.467 92.6287C256.9 53.7682 294.84 26.293 339.197 26.293C397.251 26.293 444.312 73.3544 444.312 131.408Z" fill="#51CBFF"/>
<path opacity="0.3" fill-rule="evenodd" clip-rule="evenodd" d="M44.8113 183.078C43.991 183.078 43.326 183.743 43.326 184.563L43.326 185.703C43.326 186.524 43.991 187.189 44.8113 187.189C45.6315 187.189 46.2965 186.524 46.2965 185.703L46.2965 184.563C46.2965 183.743 45.6315 183.078 44.8113 183.078ZM44.8113 193.337C43.991 193.337 43.326 194.002 43.326 194.822L43.326 197.102C43.326 197.922 43.991 198.587 44.8113 198.587C45.6315 198.587 46.2965 197.922 46.2965 197.102L46.2965 194.822C46.2965 194.002 45.6315 193.337 44.8113 193.337ZM44.8113 204.736C43.991 204.736 43.326 205.401 43.326 206.221L43.326 208.501C43.326 209.321 43.991 209.986 44.8113 209.986C45.6315 209.986 46.2965 209.321 46.2965 208.501L46.2965 206.221C46.2965 205.401 45.6315 204.736 44.8113 204.736ZM44.8113 216.135C43.991 216.135 43.326 216.8 43.326 217.62L43.326 218.76C43.326 219.133 43.3357 219.505 43.3547 219.873C43.3969 220.693 44.0952 221.322 44.9144 221.28C45.7336 221.238 46.3634 220.54 46.3212 219.72C46.3048 219.403 46.2965 219.082 46.2965 218.76L46.2965 217.62C46.2965 216.8 45.6315 216.135 44.8113 216.135ZM46.2906 226.43C45.56 226.803 45.2701 227.697 45.6431 228.428C45.9822 229.092 46.3549 229.736 46.7592 230.357C47.2066 231.045 48.1266 231.239 48.8141 230.792C49.5017 230.344 49.6963 229.424 49.2489 228.737C48.901 228.202 48.5803 227.648 48.2888 227.077C47.9158 226.347 47.0212 226.057 46.2906 226.43ZM52.5828 234.56C52.1355 235.248 52.3301 236.168 53.0176 236.615C53.6389 237.02 54.2826 237.392 54.9467 237.731C55.6772 238.104 56.5718 237.815 56.9448 237.084C57.3178 236.353 57.0279 235.459 56.2974 235.086C55.7263 234.794 55.1725 234.474 54.6378 234.126C53.9503 233.678 53.0302 233.873 52.5828 234.56ZM62.0945 238.46C62.0522 239.279 62.6821 239.978 63.5012 240.02C63.87 240.039 64.2412 240.049 64.6144 240.049L65.6071 240.049C66.4274 240.049 67.0923 239.384 67.0923 238.563C67.0923 237.743 66.4274 237.078 65.6071 237.078L64.6144 237.078C64.2922 237.078 63.9721 237.07 63.6542 237.053C62.835 237.011 62.1367 237.641 62.0945 238.46ZM175.297 238.563C175.297 237.743 174.632 237.078 173.812 237.078L172.819 237.078C171.999 237.078 171.334 237.743 171.334 238.563C171.334 239.384 171.999 240.049 172.819 240.049L173.812 240.049C174.632 240.049 175.297 239.384 175.297 238.563ZM166.363 238.563C166.363 237.743 165.698 237.078 164.877 237.078L162.892 237.078C162.072 237.078 161.407 237.743 161.407 238.563C161.407 239.384 162.072 240.049 162.892 240.049L164.877 240.049C165.698 240.049 166.363 239.384 166.363 238.563ZM156.436 238.563C156.436 237.743 155.771 237.078 154.95 237.078L152.965 237.078C152.145 237.078 151.48 237.743 151.48 238.563C151.48 239.384 152.145 240.049 152.965 240.049L154.95 240.049C155.771 240.049 156.436 239.384 156.436 238.563ZM146.509 238.563C146.509 237.743 145.844 237.078 145.023 237.078L143.038 237.078C142.218 237.078 141.553 237.743 141.553 238.563C141.553 239.384 142.218 240.049 143.038 240.049L145.023 240.049C145.844 240.049 146.509 239.384 146.509 238.563ZM136.581 238.563C136.581 237.743 135.917 237.078 135.096 237.078L133.111 237.078C132.291 237.078 131.626 237.743 131.626 238.563C131.626 239.384 132.291 240.049 133.111 240.049L135.096 240.049C135.917 240.049 136.581 239.384 136.581 238.563ZM126.654 238.563C126.654 237.743 125.99 237.078 125.169 237.078L123.184 237.078C122.364 237.078 121.699 237.743 121.699 238.563C121.699 239.384 122.364 240.049 123.184 240.049L125.169 240.049C125.99 240.049 126.654 239.384 126.654 238.563ZM116.727 238.563C116.727 237.743 116.062 237.078 115.242 237.078L113.257 237.078C112.437 237.078 111.772 237.743 111.772 238.563C111.772 239.384 112.437 240.049 113.257 240.049L115.242 240.049C116.062 240.049 116.727 239.384 116.727 238.563ZM106.8 238.563C106.8 237.743 106.135 237.078 105.315 237.078L103.33 237.078C102.51 237.078 101.845 237.743 101.845 238.563C101.845 239.384 102.51 240.049 103.33 240.049L105.315 240.049C106.135 240.049 106.8 239.384 106.8 238.563ZM96.8734 238.563C96.8734 237.743 96.2084 237.078 95.3882 237.078L93.4028 237.078C92.5825 237.078 91.9175 237.743 91.9175 238.563C91.9175 239.384 92.5825 240.049 93.4028 240.049L95.3882 240.049C96.2084 240.049 96.8734 239.384 96.8734 238.563ZM86.9464 238.563C86.9464 237.743 86.2814 237.078 85.4611 237.078L83.4757 237.078C82.6555 237.078 81.9905 237.743 81.9905 238.563C81.9905 239.384 82.6555 240.049 83.4757 240.049L85.4611 240.049C86.2814 240.049 86.9464 239.384 86.9464 238.563ZM77.0194 238.563C77.0194 237.743 76.3544 237.078 75.5341 237.078L73.5487 237.078C72.7284 237.078 72.0635 237.743 72.0635 238.563C72.0635 239.384 72.7284 240.049 73.5487 240.049L75.5341 240.049C76.3544 240.049 77.0194 239.384 77.0194 238.563Z" fill="#382D71"/>
<path d="M521.811 191.563C526.216 191.563 529.811 195.131 529.811 199.505C529.811 203.879 526.332 207.562 521.811 207.562C517.405 207.562 513.811 203.994 513.811 199.62C513.811 195.246 517.405 191.563 521.811 191.563Z" fill="#FD1F9B"/>
<path d="M286.311 55.0625C286.311 50.6567 289.879 47.0625 294.253 47.0625C298.627 47.0625 302.311 50.5408 302.311 55.0625C302.311 59.4683 298.742 63.0625 294.368 63.0625C289.994 63.0625 286.311 59.4683 286.311 55.0625Z" fill="#FD1F9B"/>
<path opacity="0.3" fill-rule="evenodd" clip-rule="evenodd" d="M521.811 218.078C522.632 218.078 523.297 218.743 523.297 219.563L523.297 220.588C523.297 221.409 522.632 222.074 521.811 222.074C520.991 222.074 520.326 221.409 520.326 220.588L520.326 219.563C520.326 218.743 520.991 218.078 521.811 218.078ZM521.811 227.303C522.632 227.303 523.297 227.968 523.297 228.788L523.297 230.838C523.297 231.659 522.632 232.324 521.811 232.324C520.991 232.324 520.326 231.659 520.326 230.838L520.326 228.788C520.326 227.968 520.991 227.303 521.811 227.303ZM521.811 237.553C522.632 237.553 523.297 238.218 523.297 239.038L523.297 241.088C523.297 241.909 522.632 242.574 521.811 242.574C520.991 242.574 520.326 241.909 520.326 241.088L520.326 239.038C520.326 238.218 520.991 237.553 521.811 237.553ZM521.811 247.803C522.632 247.803 523.297 248.468 523.297 249.288L523.297 251.338C523.297 252.159 522.632 252.824 521.811 252.824C520.991 252.824 520.326 252.159 520.326 251.338L520.326 249.288C520.326 248.468 520.991 247.803 521.811 247.803ZM521.811 258.053C522.632 258.053 523.297 258.718 523.297 259.538L523.297 260.563C523.297 261.384 522.632 262.049 521.811 262.049C520.991 262.049 520.326 261.384 520.326 260.563L520.326 259.538C520.326 258.718 520.991 258.053 521.811 258.053Z" fill="#382D71"/>
<path opacity="0.3" fill-rule="evenodd" clip-rule="evenodd" d="M312.826 55.0616C312.826 54.2414 313.491 53.5764 314.311 53.5764L315.336 53.5764C316.157 53.5764 316.822 54.2414 316.822 55.0616C316.822 55.8819 316.157 56.5469 315.336 56.5469L314.311 56.5469C313.491 56.5469 312.826 55.8819 312.826 55.0616ZM322.051 55.0616C322.051 54.2414 322.716 53.5764 323.536 53.5764L325.586 53.5764C326.407 53.5764 327.072 54.2414 327.072 55.0616C327.072 55.8819 326.407 56.5469 325.586 56.5469L323.536 56.5469C322.716 56.5469 322.051 55.8819 322.051 55.0616ZM332.301 55.0616C332.301 54.2414 332.966 53.5764 333.786 53.5764L335.836 53.5764C336.657 53.5764 337.322 54.2414 337.322 55.0616C337.322 55.8819 336.657 56.5469 335.836 56.5469L333.786 56.5469C332.966 56.5469 332.301 55.8819 332.301 55.0616ZM342.551 55.0616C342.551 54.2414 343.216 53.5764 344.036 53.5764L346.086 53.5764C346.907 53.5764 347.572 54.2414 347.572 55.0616C347.572 55.8819 346.907 56.5469 346.086 56.5469L344.036 56.5469C343.216 56.5469 342.551 55.8819 342.551 55.0616ZM352.801 55.0616C352.801 54.2414 353.466 53.5764 354.286 53.5764L355.311 53.5764C356.132 53.5764 356.797 54.2414 356.797 55.0616C356.797 55.8819 356.132 56.5469 355.311 56.5469L354.286 56.5469C353.466 56.5469 352.801 55.8819 352.801 55.0616Z" fill="#382D71"/>
<path opacity="0.3" fill-rule="evenodd" clip-rule="evenodd" d="M521.811 122.078C522.632 122.078 523.297 122.743 523.297 123.563L523.297 124.497C523.297 125.317 522.632 125.982 521.811 125.982C520.991 125.982 520.326 125.317 520.326 124.497L520.326 123.563C520.326 122.743 520.991 122.078 521.811 122.078ZM521.811 130.478C522.632 130.478 523.297 131.143 523.297 131.963L523.297 133.83C523.297 134.65 522.632 135.315 521.811 135.315C520.991 135.315 520.326 134.65 520.326 133.83L520.326 131.963C520.326 131.143 520.991 130.478 521.811 130.478ZM521.811 139.811C522.632 139.811 523.297 140.476 523.297 141.297L523.297 143.163C523.297 143.984 522.632 144.649 521.811 144.649C520.991 144.649 520.326 143.984 520.326 143.163L520.326 141.297C520.326 140.476 520.991 139.811 521.811 139.811ZM521.811 149.145C522.632 149.145 523.297 149.81 523.297 150.63L523.297 152.497C523.297 153.317 522.632 153.982 521.811 153.982C520.991 153.982 520.326 153.317 520.326 152.497L520.326 150.63C520.326 149.81 520.991 149.145 521.811 149.145ZM521.811 158.478C522.632 158.478 523.297 159.143 523.297 159.963L523.297 161.83C523.297 162.65 522.632 163.315 521.811 163.315C520.991 163.315 520.326 162.65 520.326 161.83L520.326 159.963C520.326 159.143 520.991 158.478 521.811 158.478ZM521.811 167.811C522.632 167.811 523.297 168.476 523.297 169.297L523.297 171.163C523.297 171.984 522.632 172.649 521.811 172.649C520.991 172.649 520.326 171.984 520.326 171.163L520.326 169.297C520.326 168.476 520.991 167.811 521.811 167.811ZM521.811 177.145C522.632 177.145 523.297 177.81 523.297 178.63L523.297 179.563C523.297 180.384 522.632 181.049 521.811 181.049C520.991 181.049 520.326 180.384 520.326 179.563L520.326 178.63C520.326 177.81 520.991 177.145 521.811 177.145Z" fill="#382D71"/>
<path opacity="0.3" fill-rule="evenodd" clip-rule="evenodd" d="M294.811 72.0781C295.632 72.0781 296.297 72.7431 296.297 73.5634L296.297 74.6134C296.297 75.4336 295.632 76.0986 294.811 76.0986C293.991 76.0986 293.326 75.4336 293.326 74.6134L293.326 73.5634C293.326 72.7431 293.991 72.0781 294.811 72.0781ZM294.811 81.5281C295.632 81.5281 296.297 82.1931 296.297 83.0134L296.297 85.1134C296.297 85.9336 295.632 86.5986 294.811 86.5986C293.991 86.5986 293.326 85.9336 293.326 85.1134L293.326 83.0134C293.326 82.1931 293.991 81.5281 294.811 81.5281ZM294.811 92.0281C295.632 92.0281 296.297 92.6931 296.297 93.5134L296.297 95.6134C296.297 96.4336 295.632 97.0986 294.811 97.0986C293.991 97.0986 293.326 96.4336 293.326 95.6134L293.326 93.5134C293.326 92.6931 293.991 92.0281 294.811 92.0281ZM294.811 102.528C295.632 102.528 296.297 103.193 296.297 104.013L296.297 106.113C296.297 106.934 295.632 107.599 294.811 107.599C293.991 107.599 293.326 106.934 293.326 106.113L293.326 104.013C293.326 103.193 293.991 102.528 294.811 102.528ZM294.811 113.028C295.632 113.028 296.297 113.693 296.297 114.513L296.297 115.563C296.297 116.384 295.632 117.049 294.811 117.049C293.991 117.049 293.326 116.384 293.326 115.563L293.326 114.513C293.326 113.693 293.991 113.028 294.811 113.028Z" fill="#382D71"/>
<path opacity="0.3" fill-rule="evenodd" clip-rule="evenodd" d="M216.826 55.0616C216.826 54.2414 217.491 53.5764 218.311 53.5764L219.245 53.5764C220.065 53.5764 220.73 54.2414 220.73 55.0616C220.73 55.8819 220.065 56.5469 219.245 56.5469L218.311 56.5469C217.491 56.5469 216.826 55.8819 216.826 55.0616ZM225.226 55.0616C225.226 54.2414 225.891 53.5764 226.711 53.5764L228.578 53.5764C229.398 53.5764 230.063 54.2414 230.063 55.0616C230.063 55.8819 229.398 56.5469 228.578 56.5469L226.711 56.5469C225.891 56.5469 225.226 55.8819 225.226 55.0616ZM234.56 55.0616C234.56 54.2414 235.224 53.5764 236.045 53.5764L237.911 53.5764C238.732 53.5764 239.397 54.2414 239.397 55.0616C239.397 55.8819 238.732 56.5469 237.911 56.5469L236.045 56.5469C235.224 56.5469 234.56 55.8819 234.56 55.0616ZM243.893 55.0616C243.893 54.2414 244.558 53.5764 245.378 53.5764L247.245 53.5764C248.065 53.5764 248.73 54.2414 248.73 55.0616C248.73 55.8819 248.065 56.5469 247.245 56.5469L245.378 56.5469C244.558 56.5469 243.893 55.8819 243.893 55.0616ZM253.226 55.0616C253.226 54.2414 253.891 53.5764 254.711 53.5764L256.578 53.5764C257.398 53.5764 258.063 54.2414 258.063 55.0616C258.063 55.8819 257.398 56.5469 256.578 56.5469L254.711 56.5469C253.891 56.5469 253.226 55.8819 253.226 55.0616ZM262.56 55.0616C262.56 54.2414 263.224 53.5764 264.045 53.5764L265.911 53.5764C266.732 53.5764 267.397 54.2414 267.397 55.0616C267.397 55.8819 266.732 56.5469 265.911 56.5469L264.045 56.5469C263.224 56.5469 262.56 55.8819 262.56 55.0616ZM271.893 55.0616C271.893 54.2414 272.558 53.5764 273.378 53.5764L274.311 53.5764C275.132 53.5764 275.797 54.2414 275.797 55.0616C275.797 55.8819 275.132 56.5469 274.311 56.5469L273.378 56.5469C272.558 56.5469 271.893 55.8819 271.893 55.0616Z" fill="#382D71"/>
<path opacity="0.3" fill-rule="evenodd" clip-rule="evenodd" d="M426.326 199.562C426.326 198.741 426.991 198.076 427.811 198.076L428.84 198.076C429.66 198.076 430.325 198.741 430.325 199.562C430.325 200.382 429.66 201.047 428.84 201.047L427.811 201.047C426.991 201.047 426.326 200.382 426.326 199.562ZM435.583 199.562C435.583 198.741 436.248 198.076 437.069 198.076L439.126 198.076C439.946 198.076 440.611 198.741 440.611 199.562C440.611 200.382 439.946 201.047 439.126 201.047L437.069 201.047C436.248 201.047 435.583 200.382 435.583 199.562ZM445.869 199.562C445.869 198.741 446.534 198.076 447.354 198.076L449.411 198.076C450.232 198.076 450.897 198.741 450.897 199.562C450.897 200.382 450.232 201.047 449.411 201.047L447.354 201.047C446.534 201.047 445.869 200.382 445.869 199.562ZM456.155 199.562C456.155 198.741 456.82 198.076 457.64 198.076L459.697 198.076C460.517 198.076 461.182 198.741 461.182 199.562C461.182 200.382 460.517 201.047 459.697 201.047L457.64 201.047C456.82 201.047 456.155 200.382 456.155 199.562ZM466.44 199.562C466.44 198.741 467.105 198.076 467.926 198.076L469.983 198.076C470.803 198.076 471.468 198.741 471.468 199.562C471.468 200.382 470.803 201.047 469.983 201.047L467.926 201.047C467.105 201.047 466.44 200.382 466.44 199.562ZM476.726 199.562C476.726 198.741 477.391 198.076 478.211 198.076L480.269 198.076C481.089 198.076 481.754 198.741 481.754 199.562C481.754 200.382 481.089 201.047 480.269 201.047L478.211 201.047C477.391 201.047 476.726 200.382 476.726 199.562ZM487.012 199.562C487.012 198.741 487.677 198.076 488.497 198.076L490.554 198.076C491.375 198.076 492.04 198.741 492.04 199.562C492.04 200.382 491.375 201.047 490.554 201.047L488.497 201.047C487.677 201.047 487.012 200.382 487.012 199.562ZM497.298 199.562C497.298 198.741 497.963 198.076 498.783 198.076L499.811 198.076C500.632 198.076 501.297 198.741 501.297 199.562C501.297 200.382 500.632 201.047 499.811 201.047L498.783 201.047C497.963 201.047 497.298 200.382 497.298 199.562Z" fill="#382D71"/>
<circle cx="402.389" cy="54.6687" r="28.8757" fill="#017EFA"/>
<path d="M413.999 41.8672C415.315 41.8672 416.381 42.9334 416.381 44.2487L416.381 62.1099C416.381 63.4252 415.315 64.4914 413.999 64.4914L390.78 64.4914C389.464 64.4914 388.398 63.4252 388.398 62.1099L388.398 44.2487C388.398 42.9334 389.464 41.8672 390.78 41.8672L413.999 41.8672Z" fill="white"/>
<path fill-rule="evenodd" clip-rule="evenodd" d="M398.518 66.8737V64.4922H400.304V66.8737H405.067V64.4922H406.853V66.8737H409.83V68.6598H395.541V66.8737H398.518Z" fill="white"/>
<path d="M413.403 43.6523C414.061 43.6523 414.594 44.1855 414.594 44.8431L414.594 48.4153L414.594 57.9413L414.594 61.5136C414.594 62.1712 414.058 62.7043 413.4 62.7043C404.99 62.7043 399.787 62.7043 391.377 62.7043C390.719 62.7043 390.183 62.1712 390.183 61.5136L390.183 44.8431C390.183 44.1855 390.716 43.6523 391.374 43.6523L413.403 43.6523Z" fill="#6243FF"/>
<rect x="412.809" y="45.4375" width="4.763" height="20.8381" transform="rotate(90 412.809 45.4375)" fill="#FD1F9B"/>
<rect x="412.809" y="51.3945" width="9.526" height="20.8381" transform="rotate(90 412.809 51.3945)" fill="white"/>
<path d="M35.2401 354.877V327.691H48.618L55.8635 334.937V354.877H35.2401Z" stroke="#017EFA" stroke-width="2.81228"/>
<rect x="40.3984" y="341.285" width="10.3117" height="2.81228" fill="#51CBFF"/>
<rect x="40.3984" y="335.66" width="5.62455" height="2.81228" fill="#51CBFF"/>
<rect x="40.3984" y="345.973" width="10.3117" height="2.81228" fill="#51CBFF"/>
<path opacity="0.3" fill-rule="evenodd" clip-rule="evenodd" d="M69.4043 341.563C69.4043 340.786 70.0338 340.156 70.8104 340.156L71.7854 340.156C72.562 340.156 73.1916 340.786 73.1916 341.563C73.1916 342.339 72.562 342.969 71.7854 342.969L70.8104 342.969C70.0338 342.969 69.4043 342.339 69.4043 341.563ZM78.1793 341.563C78.1793 340.786 78.8088 340.156 79.5854 340.156L81.5354 340.156C82.312 340.156 82.9416 340.786 82.9416 341.563C82.9416 342.339 82.312 342.969 81.5354 342.969L79.5854 342.969C78.8088 342.969 78.1793 342.339 78.1793 341.563ZM87.9293 341.563C87.9293 340.786 88.5588 340.156 89.3354 340.156L91.2854 340.156C92.062 340.156 92.6916 340.786 92.6916 341.563C92.6916 342.339 92.062 342.969 91.2854 342.969L89.3354 342.969C88.5588 342.969 87.9293 342.339 87.9293 341.563ZM97.6793 341.563C97.6793 340.786 98.3088 340.156 99.0854 340.156L101.035 340.156C101.812 340.156 102.442 340.786 102.442 341.563C102.442 342.339 101.812 342.969 101.035 342.969L99.0854 342.969C98.3088 342.969 97.6793 342.339 97.6793 341.563ZM107.429 341.563C107.429 340.786 108.059 340.156 108.835 340.156L110.785 340.156C111.562 340.156 112.192 340.786 112.192 341.563C112.192 342.339 111.562 342.969 110.785 342.969L108.835 342.969C108.059 342.969 107.429 342.339 107.429 341.563ZM117.179 341.563C117.179 340.786 117.809 340.156 118.585 340.156L120.535 340.156C121.312 340.156 121.942 340.786 121.942 341.563C121.942 342.339 121.312 342.969 120.535 342.969L118.585 342.969C117.809 342.969 117.179 342.339 117.179 341.563ZM126.929 341.563C126.929 340.786 127.559 340.156 128.335 340.156L130.285 340.156C131.062 340.156 131.692 340.786 131.692 341.563C131.692 342.339 131.062 342.969 130.285 342.969L128.335 342.969C127.559 342.969 126.929 342.339 126.929 341.563ZM136.679 341.563C136.679 340.786 137.309 340.156 138.085 340.156L140.035 340.156C140.812 340.156 141.442 340.786 141.442 341.563C141.442 342.339 140.812 342.969 140.035 342.969L138.085 342.969C137.309 342.969 136.679 342.339 136.679 341.563ZM146.429 341.563C146.429 340.786 147.059 340.156 147.835 340.156L148.81 340.156C149.587 340.156 150.217 340.786 150.217 341.563C150.217 342.339 149.587 342.969 148.81 342.969L147.835 342.969C147.059 342.969 146.429 342.339 146.429 341.563Z" fill="#382D71"/>
<path d="M511.217 106.154V78.9686H524.596L531.84 86.2129V106.154H511.217Z" stroke="#017EFA" stroke-width="2.81228"/>
<rect x="516.375" y="92.5625" width="10.3117" height="2.81228" fill="#51CBFF"/>
<rect x="516.375" y="86.9375" width="5.62455" height="2.81228" fill="#51CBFF"/>
<rect x="516.375" y="97.25" width="10.3117" height="2.81228" fill="#51CBFF"/>
<path fill-rule="evenodd" clip-rule="evenodd" d="M133.189 55.6515C121.382 55.6506 111.811 46.0785 111.811 34.2709C111.811 22.4627 121.383 12.8903 133.191 12.8903C136.256 12.8903 139.171 13.5353 141.807 14.6971C144.358 6.50768 151.998 0.5625 161.028 0.5625C172.144 0.5625 181.156 9.57438 181.156 20.6911C181.156 21.6817 181.085 22.6555 180.946 23.6078C188.882 24.5954 195.023 31.3642 195.023 39.5674C195.023 48.4502 187.823 55.651 178.94 55.651C178.907 55.651 178.873 55.6509 178.84 55.6507V55.6517H133.189V55.6515Z" fill="white"/>
<path d="M182.217 66.154V38.9686H195.596L202.84 46.2129V66.154H182.217Z" stroke="#017EFA" stroke-width="2.81228"/>
<rect x="187.375" y="52.5625" width="10.3117" height="2.81228" fill="#51CBFF"/>
<rect x="187.375" y="46.9375" width="5.62455" height="2.81228" fill="#51CBFF"/>
<rect x="187.375" y="57.25" width="10.3117" height="2.81228" fill="#51CBFF"/>
<path opacity="0.1" d="M45.3763 95.8332C63.6413 95.8332 78.5418 110.626 78.5418 128.76C78.5418 146.894 64.1219 162.164 45.3763 162.164C27.1113 162.164 12.2109 147.371 12.2109 129.237C12.2109 111.104 27.1113 95.8332 45.3763 95.8332Z" fill="#017EFA"/>
<path fill-rule="evenodd" clip-rule="evenodd" d="M31.4199 114.074L45.3767 118.726L59.3336 114.074V137.81L45.3767 142.462L31.4199 137.81V114.074ZM33.5671 117.053V136.262L45.3767 140.199L57.1864 136.262V117.053L45.3767 120.99L33.5671 117.053Z" fill="#017EFA"/>
<path d="M43.7644 124.42L36.5176 122.004V134.082L43.7644 136.498V124.42Z" fill="#FD1F9B"/>
<path d="M46.9856 124.42L54.2324 122.004V134.082L46.9856 136.498V124.42Z" fill="white"/>
<path opacity="0.2" fill-rule="evenodd" clip-rule="evenodd" d="M45.1004 88.6034C67.2176 88.6034 85.2189 106.52 85.2189 128.402C85.2189 150.407 67.7397 168.84 45.1004 168.84C22.9832 168.84 4.98205 150.923 4.98205 129.042C4.98205 107.079 23.0648 88.6034 45.1004 88.6034ZM89.5974 128.402C89.5974 104.072 69.6059 84.2248 45.1004 84.2248C20.5948 84.2248 0.603516 104.713 0.603516 129.042C0.603516 153.371 20.5948 173.219 45.1004 173.219C70.2508 173.219 89.5974 152.731 89.5974 128.402Z" fill="#51CBFF"/>
<path d="M187.006 134.562C187.006 130.697 190.14 127.562 194.006 127.562H406.16C410.026 127.562 413.16 130.697 413.16 134.563V342.005C413.16 345.871 410.026 349.005 406.16 349.005H194.006C190.14 349.005 187.006 345.871 187.006 342.005V134.562Z" fill="#3E2F84"/>
<path d="M203.967 148.523C203.967 146.314 205.758 144.523 207.967 144.523H392.198C394.407 144.523 396.198 146.314 396.198 148.523V328.043C396.198 330.252 394.407 332.043 392.198 332.043H207.967C205.758 332.043 203.967 330.252 203.967 328.043V148.523Z" fill="#5C4EA8"/>
<path fill-rule="evenodd" clip-rule="evenodd" d="M392.198 147.523H207.967C207.415 147.523 206.967 147.971 206.967 148.523V328.043C206.967 328.595 207.415 329.043 207.967 329.043H392.198C392.75 329.043 393.198 328.595 393.198 328.043V148.523C393.198 147.971 392.75 147.523 392.198 147.523ZM207.967 144.523C205.758 144.523 203.967 146.314 203.967 148.523V328.043C203.967 330.252 205.758 332.043 207.967 332.043H392.198C394.407 332.043 396.198 330.252 396.198 328.043V148.523C396.198 146.314 394.407 144.523 392.198 144.523H207.967Z" fill="#7366C2"/>
<ellipse opacity="0.8" cx="259.104" cy="235.562" rx="37.5" ry="37" fill="#D5D1F7"/>
<circle cx="258.811" cy="235.562" r="21.875" stroke="#9385DE" stroke-width="12.25"/>
<path fill-rule="evenodd" clip-rule="evenodd" d="M283.768 237.035L277.778 236.687C277.8 236.316 277.811 235.941 277.811 235.562C277.811 235.184 277.8 234.809 277.778 234.438L283.768 234.09C283.796 234.577 283.811 235.068 283.811 235.562C283.811 236.057 283.796 236.548 283.768 237.035ZM282.437 227.369L276.768 229.335C276.523 228.628 276.237 227.939 275.913 227.272L281.309 224.65C281.736 225.529 282.114 226.436 282.437 227.369ZM277.499 218.956L273.015 222.943C272.518 222.384 271.989 221.855 271.43 221.358L275.417 216.875C276.151 217.527 276.846 218.222 277.499 218.956ZM269.723 213.064L267.101 218.46C266.434 218.136 265.745 217.85 265.039 217.605L267.004 211.936C267.937 212.26 268.844 212.637 269.723 213.064ZM260.283 210.605L259.935 216.595C259.564 216.573 259.189 216.562 258.811 216.562C258.432 216.562 258.057 216.573 257.686 216.595L257.338 210.605C257.825 210.577 258.316 210.562 258.811 210.562C259.305 210.562 259.796 210.577 260.283 210.605ZM250.617 211.936L252.583 217.605C251.876 217.85 251.187 218.136 250.52 218.46L247.898 213.064C248.777 212.637 249.684 212.26 250.617 211.936ZM242.204 216.875L246.191 221.358C245.632 221.855 245.103 222.384 244.606 222.943L240.123 218.956C240.775 218.222 241.47 217.527 242.204 216.875ZM236.312 224.65L241.708 227.272C241.384 227.939 241.098 228.628 240.853 229.335L235.184 227.369C235.508 226.436 235.885 225.529 236.312 224.65ZM233.853 234.09C233.825 234.577 233.811 235.068 233.811 235.562C233.811 236.057 233.825 236.548 233.853 237.035L239.843 236.687C239.822 236.316 239.811 235.941 239.811 235.562C239.811 235.184 239.822 234.809 239.843 234.438L233.853 234.09ZM235.184 243.756L240.853 241.79C241.098 242.497 241.384 243.186 241.708 243.853L236.312 246.475C235.885 245.596 235.508 244.689 235.184 243.756ZM240.123 252.169L244.606 248.182C245.103 248.741 245.632 249.27 246.191 249.767L242.204 254.25C241.47 253.598 240.775 252.903 240.123 252.169ZM247.898 258.061L250.52 252.665C251.187 252.989 251.876 253.275 252.583 253.52L250.617 259.189C249.684 258.865 248.777 258.488 247.898 258.061ZM257.338 260.52L257.686 254.53C258.057 254.552 258.432 254.562 258.811 254.562C259.189 254.562 259.564 254.552 259.935 254.53L260.283 260.52C259.796 260.548 259.305 260.562 258.811 260.562C258.316 260.562 257.825 260.548 257.338 260.52ZM267.004 259.189L265.038 253.52C265.745 253.275 266.434 252.989 267.101 252.665L269.723 258.061C268.844 258.488 267.937 258.865 267.004 259.189ZM275.417 254.25L271.43 249.767C271.989 249.27 272.518 248.741 273.015 248.182L277.499 252.169C276.846 252.903 276.151 253.598 275.417 254.25ZM281.309 246.475L275.913 243.853C276.237 243.186 276.523 242.497 276.768 241.79L282.437 243.756C282.114 244.689 281.736 245.596 281.309 246.475Z" fill="#5C4EA8"/>
<path d="M199.193 168.083C199.193 167.563 199.615 167.141 200.136 167.141H209.583C210.104 167.141 210.526 167.563 210.526 168.083V190.698C210.526 191.219 210.104 191.641 209.583 191.641H200.136C199.615 191.641 199.193 191.219 199.193 190.698V168.083Z" fill="#7667C9"/>
<path d="M345.604 206.505C345.604 205.984 346.026 205.562 346.546 205.562H360.661C361.182 205.562 361.604 205.984 361.604 206.505V220.62C361.604 221.141 361.182 221.562 360.661 221.562H346.546C346.025 221.562 345.604 221.141 345.604 220.62L345.604 206.505Z" fill="#7D6FC8"/>
<path d="M345.604 248.505C345.604 247.984 346.026 247.562 346.546 247.562H360.661C361.182 247.562 361.604 247.984 361.604 248.505V262.62C361.604 263.141 361.182 263.562 360.661 263.562H346.546C346.025 263.562 345.604 263.141 345.604 262.62L345.604 248.505Z" fill="#7D6FC8"/>
<path d="M348.604 211.505C348.604 210.984 349.026 210.562 349.546 210.562H357.661C358.182 210.562 358.604 210.984 358.604 211.505V257.62C358.604 258.141 358.182 258.562 357.661 258.562H349.546C349.025 258.562 348.604 258.141 348.604 257.62L348.604 211.505Z" fill="#BDB7E7"/>
<path d="M199.314 285.872C199.314 285.352 199.736 284.93 200.257 284.93H209.68C210.2 284.93 210.622 285.352 210.622 285.872V308.487C210.622 309.008 210.2 309.43 209.68 309.43H200.257C199.736 309.43 199.314 309.008 199.314 308.487V285.872Z" fill="#7667C9"/>
<path opacity="0.2" d="M561.819 317.09C561.819 295.21 543.826 277.316 521.735 277.316C499.7 277.316 481.651 295.774 481.651 317.71C481.651 339.589 499.644 357.483 521.735 357.483C544.366 357.483 561.819 339.054 561.819 317.09Z" stroke="#51CBFF" stroke-width="5.98637"/>
<path d="M521.734 288.926C537.416 288.926 550.209 301.627 550.209 317.196C550.209 332.764 537.828 345.875 521.734 345.875C506.053 345.875 493.26 333.174 493.26 317.605C493.26 302.037 506.053 288.926 521.734 288.926Z" fill="white"/>
<path d="M511.516 305.089C511.516 303.42 512.869 302.066 514.539 302.066H527.476C529.145 302.066 530.499 303.42 530.499 305.089V329.708C530.499 331.378 529.145 332.731 527.476 332.731H514.539C512.869 332.731 511.516 331.378 511.516 329.708V305.089Z" fill="#017EFA"/>
<path d="M513.703 305.769C513.703 304.935 514.38 304.258 515.215 304.258H517.354L517.545 304.528C518.112 305.328 519.032 305.804 520.012 305.804H521.004H521.996C522.977 305.804 523.897 305.328 524.463 304.528L524.655 304.258H526.794C527.629 304.258 528.305 304.935 528.305 305.769V329.031C528.305 329.865 527.629 330.542 526.794 330.542H515.215C514.38 330.542 513.703 329.865 513.703 329.031V305.769Z" fill="white"/>
<rect x="526.115" y="307.176" width="5.84093" height="10.2216" transform="rotate(90 526.115 307.176)" fill="#FD1F9B"/>
<rect x="526.115" y="315.938" width="11.6819" height="10.2216" transform="rotate(90 526.115 315.938)" fill="#51CBFF"/>
<path d="M239.928 313.93L211.928 285.93V313.93H239.928Z" fill="white"/>
<path d="M211.928 285.93H166.428V302.93H157.428V322.93H166.428V381.93H239.928V313.93H211.928V285.93Z" fill="white"/>
<path fill-rule="evenodd" clip-rule="evenodd" d="M164.928 284.43H212.549L241.428 313.308V383.43H164.928V324.43H155.928V301.43H164.928V284.43ZM167.928 287.43V304.43H158.928V321.43H167.928V380.43H238.428V315.43H210.428V287.43H167.928ZM213.428 289.551L236.306 312.43H213.428V289.551Z" fill="#017EFA"/>
<path fill-rule="evenodd" clip-rule="evenodd" d="M213.432 285.316L240.525 312.419H213.432V285.316Z" fill="#AED7FF"/>
<path d="M155.928 301.43H197.428V324.43H155.928V301.43Z" fill="#FD1F9B"/>
<path d="M162.539 307.52H159.923L163.274 312.974L159.859 318.429H162.501L164.739 314.705H164.824L167.061 318.429H169.714L166.31 312.974L169.639 307.52H167.034L164.824 311.238H164.739L162.539 307.52Z" fill="white"/>
<path d="M171.849 307.52V318.429H174.086V311.301H174.176L177 318.375H178.523L181.346 311.328H181.437V318.429H183.674V307.52H180.83L177.825 314.849H177.697L174.693 307.52H171.849Z" fill="white"/>
<path d="M186.456 318.429H193.439V316.527H188.763V307.52H186.456V318.429Z" fill="white"/>
<path fill-rule="evenodd" clip-rule="evenodd" d="M205.171 331.93H211.114L201.209 368.576H195.267L205.171 331.93ZM194.275 339.853V345.796L185.22 349.757L194.276 353.719V359.662L178.429 352.729V352.729L178.428 352.729V346.786L194.275 339.853ZM212.103 353.719V359.662L227.95 352.729V352.729L227.951 352.729V346.786L212.104 339.853V345.796L221.159 349.757L212.103 353.719Z" fill="#51CBFF"/>
</svg>
