<?xml version="1.0" encoding="utf-8"?>
<!-- Generator: Adobe Illustrator 24.3.0, SVG Export Plug-In . SVG Version: 6.00 Build 0)  -->
<svg version="1.1" id="Layer_1" xmlns="http://www.w3.org/2000/svg" xmlns:xlink="http://www.w3.org/1999/xlink" x="0px" y="0px"
	 viewBox="0 0 509 504" style="enable-background:new 0 0 509 504;" xml:space="preserve">
<style type="text/css">
	.st0{opacity:5.000000e-02;fill:url(#SVGID_1_);enable-background:new    ;}
	.st1{opacity:5.000000e-02;fill:url(#SVGID_2_);enable-background:new    ;}
	.st2{opacity:0.15;fill:url(#SVGID_3_);enable-background:new    ;}
	.st3{opacity:0.9;fill:none;stroke:#D4DAEB;stroke-width:2;stroke-linecap:round;stroke-dasharray:2,8;enable-background:new    ;}
	.st4{fill:#017EFA;}
	.st5{opacity:7.000000e-02;fill:#017EFA;enable-background:new    ;}
	.st6{fill:#A2E1FF;}
	.st7{opacity:0.2;fill:none;stroke:#51CBFF;stroke-width:4.3785;enable-background:new    ;}
	.st8{fill:#AAE3FF;}
	.st9{fill:#BCDBFC;}
	.st10{fill:#FFFFFF;}
	.st11{fill:#FD1F9B;}
	.st12{fill:#51CBFF;}
	.st13{opacity:0.8;fill:#FFFFFF;enable-background:new    ;}
</style>
<linearGradient id="SVGID_1_" gradientUnits="userSpaceOnUse" x1="503.61" y1="273.2455" x2="95.7067" y2="273.2455" gradientTransform="matrix(1 0 0 -1 0 505)">
	<stop  offset="0" style="stop-color:#017EFA"/>
	<stop  offset="1" style="stop-color:#017EFA;stop-opacity:0"/>
</linearGradient>
<path class="st0" d="M272.3,463.1c127.4,0,231.3-103.2,231.3-229.6c0-126.5-100.6-233-231.3-233C144.9,0.4,41,103.6,41,230.1
	C41,356.6,144.9,463.1,272.3,463.1z"/>
<linearGradient id="SVGID_2_" gradientUnits="userSpaceOnUse" x1="420.834" y1="273.2454" x2="95.7078" y2="273.2454" gradientTransform="matrix(1 0 0 -1 0 505)">
	<stop  offset="0" style="stop-color:#017EFA"/>
	<stop  offset="1" style="stop-color:#017EFA;stop-opacity:0"/>
</linearGradient>
<path class="st1" d="M272.3,380.3c81.8,0,148.5-66.3,148.5-147.5c0-81.2-64.6-149.6-148.5-149.6c-81.8,0-148.5,66.3-148.5,147.5
	S190.5,380.3,272.3,380.3z"/>
<linearGradient id="SVGID_3_" gradientUnits="userSpaceOnUse" x1="372.3393" y1="271.7729" x2="169.3073" y2="274.7619" gradientTransform="matrix(1 0 0 -1 0 505)">
	<stop  offset="0" style="stop-color:#017EFA"/>
	<stop  offset="1" style="stop-color:#017EFA;stop-opacity:0"/>
</linearGradient>
<path class="st2" d="M272.3,334.8c56.7,0,103-45.9,103-102.3c0-56.3-44.8-103.8-103-103.8c-56.7,0-103,45.9-103,102.3
	C169.3,287.3,215.6,334.8,272.3,334.8z"/>
<ellipse class="st3" cx="267.5" cy="232" rx="235.5" ry="231"/>
<ellipse class="st3" cx="270" cy="232" rx="151" ry="148"/>
<path class="st4" d="M333.5,18c4.7,0,8.5-3.8,8.5-8.4c0-4.6-3.7-8.6-8.5-8.6c-4.7,0-8.5,3.8-8.5,8.4C325,14.1,328.8,18,333.5,18z"/>
<path class="st5" d="M43.5,117c24,0,43.5,19.4,43.5,43.2S68.1,204,43.5,204C19.5,204,0,184.6,0,160.8S19.5,117,43.5,117z"/>
<path class="st6" d="M43.5,169c4.7,0,8.5-3.8,8.5-8.4c0-4.6-3.7-8.6-8.5-8.6c-4.7,0-8.5,3.8-8.5,8.4C35,165.1,38.8,169,43.5,169z"/>
<path class="st7" d="M356.8,459.2c0-23.1-19-42-42.3-42c-23.3,0-42.3,19.5-42.3,42.6c0,23.1,19,42,42.3,42
	C338.4,501.8,356.8,482.3,356.8,459.2z"/>
<path class="st7" d="M485.8,79.2c0-23.1-19-42-42.3-42c-23.3,0-42.3,19.5-42.3,42.6c0,23.1,19,42,42.3,42
	C467.4,121.8,485.8,102.3,485.8,79.2z"/>
<path class="st8" d="M500.5,282c4.7,0,8.5-3.8,8.5-8.4c0-4.6-3.7-8.6-8.5-8.6c-4.7,0-8.5,3.8-8.5,8.4C492,278.1,495.8,282,500.5,282
	z"/>
<path class="st9" d="M314.5,468c4.7,0,8.5-3.8,8.5-8.4c0-4.6-3.7-8.6-8.5-8.6c-4.7,0-8.5,3.8-8.5,8.4C306,464.1,309.8,468,314.5,468
	z"/>
<path class="st10" d="M443.5,87c4.7,0,8.5-3.8,8.5-8.4c0-4.6-3.7-8.6-8.5-8.6c-4.7,0-8.5,3.8-8.5,8.4C435,83.1,438.8,87,443.5,87z"
	/>
<path class="st11" d="M398.5,162c4.7,0,8.5-3.8,8.5-8.4c0-4.6-3.7-8.6-8.5-8.6c-4.7,0-8.5,3.8-8.5,8.4
	C390,158.1,393.8,162,398.5,162z"/>
<path class="st12" d="M102.5,407c4.7,0,8.5-3.8,8.5-8.4c0-4.6-3.7-8.6-8.5-8.6c-4.7,0-8.5,3.8-8.5,8.4C94,403.1,97.8,407,102.5,407z
	"/>
<path class="st12" d="M165.5,132c4.7,0,8.5-3.8,8.5-8.4c0-4.6-3.7-8.6-8.5-8.6c-4.7,0-8.5,3.8-8.5,8.4
	C157,128.1,160.8,132,165.5,132z"/>
<path class="st4" d="M357.5,358c4.7,0,8.5-3.8,8.5-8.4c0-4.6-3.7-8.6-8.5-8.6c-4.7,0-8.5,3.8-8.5,8.4C349,354.1,352.8,358,357.5,358
	z"/>
<path class="st4" d="M230.2,207.4c9.5,0,17.2-7.7,17.2-17.1s-7.5-17.3-17.2-17.3c-9.5,0-17.2,7.7-17.2,17.1
	C213,199.5,220.7,207.4,230.2,207.4z"/>
<path class="st4" d="M230.2,249.2c9.5,0,17.2-7.7,17.2-17.1c0-9.4-7.5-17.3-17.2-17.3c-9.5,0-17.2,7.7-17.2,17.1
	C213,241.3,220.7,249.2,230.2,249.2z"/>
<path class="st12" d="M230.2,291c9.5,0,17.2-7.7,17.2-17.1c0-9.4-7.5-17.3-17.2-17.3c-9.5,0-17.2,7.7-17.2,17.1S220.7,291,230.2,291
	z"/>
<path class="st4" d="M272,207.4c9.5,0,17.2-7.7,17.2-17.1S281.7,173,272,173c-9.5,0-17.2,7.7-17.2,17.1
	C254.8,199.5,262.5,207.4,272,207.4z"/>
<path class="st4" d="M272,249.2c9.5,0,17.2-7.7,17.2-17.1c0-9.4-7.5-17.3-17.2-17.3c-9.5,0-17.2,7.7-17.2,17.1
	C254.8,241.3,262.5,249.2,272,249.2z"/>
<path class="st4" d="M272,291c9.5,0,17.2-7.7,17.2-17.1c0-9.4-7.5-17.3-17.2-17.3c-9.5,0-17.2,7.7-17.2,17.1S262.5,291,272,291z"/>
<path class="st4" d="M313.8,207.4c9.5,0,17.2-7.7,17.2-17.1s-7.5-17.3-17.2-17.3c-9.5,0-17.2,7.7-17.2,17.1
	C296.6,199.5,304.3,207.4,313.8,207.4z"/>
<path class="st12" d="M313.8,249.2c9.5,0,17.2-7.7,17.2-17.1c0-9.4-7.5-17.3-17.2-17.3c-9.5,0-17.2,7.7-17.2,17.1
	C296.6,241.3,304.3,249.2,313.8,249.2z"/>
<path class="st12" d="M313.8,291c9.5,0,17.2-7.7,17.2-17.1c0-9.4-7.5-17.3-17.2-17.3c-9.5,0-17.2,7.7-17.2,17.1S304.3,291,313.8,291
	z"/>
<path class="st13" d="M130.5,334c24,0,43.5-19.4,43.5-43.2S155.1,247,130.5,247c-24,0-43.5,19.4-43.5,43.2S106.5,334,130.5,334z"/>
<path class="st11" d="M130.5,299c4.7,0,8.5-3.8,8.5-8.4c0-4.6-3.7-8.6-8.5-8.6c-4.7,0-8.5,3.8-8.5,8.4
	C122,295.1,125.8,299,130.5,299z"/>
</svg>
